<?xml version="1.0" encoding="UTF-8"?>
<svg id="Laag_1" data-name="Laag 1" xmlns="http://www.w3.org/2000/svg" xmlns:xlink="http://www.w3.org/1999/xlink" version="1.1" viewBox="0 0 500 500">
  <defs>
    <style>
      .cls-1 {
        fill: #ef7900;
      }

      .cls-1, .cls-2, .cls-3, .cls-4, .cls-5, .cls-6, .cls-7, .cls-8, .cls-9, .cls-10, .cls-11, .cls-12, .cls-13, .cls-14, .cls-15, .cls-16, .cls-17, .cls-18, .cls-19, .cls-20, .cls-21 {
        stroke-width: 0px;
      }

      .cls-2 {
        fill: #6e6055;
      }

      .cls-3 {
        opacity: .3;
      }

      .cls-3, .cls-7, .cls-17 {
        isolation: isolate;
      }

      .cls-3, .cls-7, .cls-18 {
        fill: #f9fcfd;
      }

      .cls-22 {
        clip-path: url(#clippath);
      }

      .cls-4 {
        fill: none;
      }

      .cls-5 {
        fill: #82952c;
      }

      .cls-6 {
        fill: #def1f8;
      }

      .cls-7 {
        opacity: .2;
      }

      .cls-8 {
        fill: #efd9bf;
      }

      .cls-9 {
        fill: #d9eef1;
      }

      .cls-10 {
        fill: #f9dd81;
      }

      .cls-11 {
        fill: #a0c14e;
      }

      .cls-12 {
        fill: #62c6eb;
      }

      .cls-13 {
        fill: #827361;
      }

      .cls-14 {
        fill: #c2c1c1;
      }

      .cls-15 {
        fill: #9e8c74;
      }

      .cls-16 {
        fill: #feeee6;
      }

      .cls-17 {
        fill: #cbe9f6;
        opacity: .4;
      }

      .cls-19 {
        fill: #ceb293;
      }

      .cls-20 {
        fill: #7b7f64;
      }

      .cls-21 {
        fill: #877460;
      }
    </style>
    <clipPath id="clippath">
      <rect class="cls-4" width="500" height="500"/>
    </clipPath>
  </defs>
  <g class="cls-22">
    <g>
      <rect class="cls-9" width="500" height="305.3"/>
      <path class="cls-19" d="M34.4,348c1.3,0,1.3-2,0-2s-1.3,2,0,2h0Z"/>
      <path class="cls-19" d="M45.7,355.4c.6,0,.6-1,0-1s-.6,1,0,1h0Z"/>
      <path class="cls-19" d="M36.6,329.5c.6,0,.6-1,0-1s-.6,1,0,1h0Z"/>
      <path class="cls-19" d="M96.9,359.8c1.3,0,1.3-2,0-2s-1.3,2,0,2h0Z"/>
      <path class="cls-19" d="M98.7,400c1.3,0,1.3-2,0-2s-1.3,2,0,2h0Z"/>
      <path class="cls-19" d="M107.8,440.7c1.3,0,1.3-2,0-2s-1.3,2,0,2h0Z"/>
      <rect class="cls-8" y="281.7" width="504.9" height="218.3"/>
      <polygon class="cls-13" points="101.8 496.5 115.9 432.5 118.7 351.4 94 351.4 94 424 80 500.7 101.8 496.5"/>
      <path class="cls-6" d="M10,339.9s2-32.4,94.8-28.7c92.8,3.7,205.7,8,190.1-6.9-15.6-14.9,179.7,4.3,203.5-3.7s14.9-2.1,14.9-2.1v-27.7H10.1v69.1h-.1Z"/>
      <polygon class="cls-15" points="39.1 457.4 53.2 393.4 56 312.3 31.3 312.3 31.3 384.9 17.3 461.6 39.1 457.4"/>
      <path class="cls-12" d="M0,332.9s2-32.4,94.8-28.7c92.8,3.7,205.7,8,190.1-6.9-15.6-14.9,179.7,4.3,203.5-3.7s14.9-2.1,14.9-2.1v-27.7H.1v69.1h-.1Z"/>
      <polygon class="cls-14" points="94 381.1 47.3 342 47.3 339.9 94.3 379.4 94 381.1"/>
      <path class="cls-17" d="M262.2,288.5s21.9,8.6,7.7,9.8-78.7,1.5-78.7,1.5l55.8-2.4s29.8,1,15.2-9h0q0,.1,0,.1Z"/>
      <path class="cls-6" d="M10,339.9L0,371.9v-39s2.8-13.3,10-14c7.2-.7,0,21,0,21Z"/>
      <path class="cls-19" d="M135.2,384.6c1.3,0,1.3-2,0-2s-1.3,2,0,2h0Z"/>
      <path class="cls-19" d="M146,360.7c1.3,0,1.3-2,0-2s-1.3,2,0,2h0Z"/>
      <path class="cls-19" d="M183.5,367.7c1.3,0,1.3-2,0-2s-1.3,2,0,2h0Z"/>
      <path class="cls-19" d="M42.3,415.8c1.3,0,1.3-2,0-2s-1.3,2,0,2h0Z"/>
      <path class="cls-19" d="M73.9,317.5c1.3,0,1.3-2,0-2s-1.3,2,0,2h0Z"/>
      <path class="cls-19" d="M154.1,470c1.3,0,1.3-2,0-2s-1.3,2,0,2h0Z"/>
      <path class="cls-19" d="M190.2,401.1c1.3,0,1.3-2,0-2s-1.3,2,0,2h0Z"/>
      <path class="cls-19" d="M239.9,448.6c1.3,0,1.3-2,0-2s-1.3,2,0,2h0Z"/>
      <path class="cls-19" d="M199.3,441.8c1.3,0,1.3-2,0-2s-1.3,2,0,2h0Z"/>
      <path class="cls-19" d="M236.6,380.8c1.3,0,1.3-2,0-2s-1.3,2,0,2h0Z"/>
      <path class="cls-19" d="M247.9,348c1.3,0,1.3-2,0-2s-1.3,2,0,2h0Z"/>
      <path class="cls-19" d="M206.1,348c1.3,0,1.3-2,0-2s-1.3,2,0,2h0Z"/>
      <path class="cls-19" d="M308.8,348c1.3,0,1.3-2,0-2s-1.3,2,0,2h0Z"/>
      <path class="cls-19" d="M313.4,387.6c1.3,0,1.3-2,0-2s-1.3,2,0,2h0Z"/>
      <path class="cls-19" d="M377.7,384.2c1.3,0,1.3-2,0-2s-1.3,2,0,2h0Z"/>
      <path class="cls-19" d="M431.9,333.4c1.3,0,1.3-2,0-2s-1.3,2,0,2h0Z"/>
      <path class="cls-19" d="M459.1,385.3c1.3,0,1.3-2,0-2s-1.3,2,0,2h0Z"/>
      <path class="cls-19" d="M456.8,411.3c1.3,0,1.3-2,0-2s-1.3,2,0,2h0Z"/>
      <path class="cls-19" d="M409.4,418.1c1.3,0,1.3-2,0-2s-1.3,2,0,2h0Z"/>
      <path class="cls-19" d="M422.9,374c1.3,0,1.3-2,0-2s-1.3,2,0,2h0Z"/>
      <path class="cls-19" d="M483.9,335.6c1.3,0,1.3-2,0-2s-1.3,2,0,2h0Z"/>
      <path class="cls-19" d="M394.7,326.6c1.3,0,1.3-2,0-2s-1.3,2,0,2h0Z"/>
      <path class="cls-19" d="M340.5,326.6c1.3,0,1.3-2,0-2s-1.3,2,0,2h0Z"/>
      <path class="cls-19" d="M347.2,374c1.3,0,1.3-2,0-2s-1.3,2,0,2h0Z"/>
      <path class="cls-19" d="M337.1,451.9c1.3,0,1.3-2,0-2s-1.3,2,0,2h0Z"/>
      <path class="cls-19" d="M290.8,467.8c1.3,0,1.3-2,0-2s-1.3,2,0,2h0Z"/>
      <path class="cls-19" d="M235.4,477.9c1.3,0,1.3-2,0-2s-1.3,2,0,2h0Z"/>
      <path class="cls-19" d="M194.8,489.2c1.3,0,1.3-2,0-2s-1.3,2,0,2h0Z"/>
      <path class="cls-19" d="M470.4,482.4c1.3,0,1.3-2,0-2s-1.3,2,0,2h0Z"/>
      <path class="cls-19" d="M409.4,450.8c1.3,0,1.3-2,0-2s-1.3,2,0,2h0Z"/>
      <path class="cls-19" d="M470.4,446.3c1.3,0,1.3-2,0-2s-1.3,2,0,2h0Z"/>
      <path class="cls-19" d="M421.8,406.3c.6,0,.6-1,0-1s-.6,1,0,1h0Z"/>
      <path class="cls-19" d="M406,362.2c.6,0,.6-1,0-1s-.6,1,0,1h0Z"/>
      <path class="cls-19" d="M457.9,362.2c.6,0,.6-1,0-1s-.6,1,0,1h0Z"/>
      <path class="cls-19" d="M208.3,378c.6,0,.6-1,0-1s-.6,1,0,1h0Z"/>
      <path class="cls-19" d="M153,409.7c.6,0,.6-1,0-1s-.6,1,0,1h0Z"/>
      <path class="cls-19" d="M54.7,432.2c.6,0,.6-1,0-1s-.6,1,0,1h0Z"/>
      <path class="cls-19" d="M71.7,396.1c.6,0,.6-1,0-1s-.6,1,0,1h0Z"/>
      <path class="cls-19" d="M31,392.7c.6,0,.6-1,0-1s-.6,1,0,1h0Z"/>
      <path class="cls-19" d="M95.4,330.6c.6,0,.6-1,0-1s-.6,1,0,1h0Z"/>
      <path class="cls-19" d="M199.3,324.9c.6,0,.6-1,0-1s-.6,1,0,1h0Z"/>
      <path class="cls-19" d="M347.2,303.5c.6,0,.6-1,0-1s-.6,1,0,1h0Z"/>
      <path class="cls-19" d="M406,310.3c.6,0,.6-1,0-1s-.6,1,0,1h0Z"/>
      <polygon class="cls-20" points="35.8 426.2 43.1 348 43.1 422.7 69.9 348 43.1 454.9 86 379.2 56.6 470.4 82.3 446.5 65.8 474.6 130.4 394 82.3 474.6 117.1 439.5 86 493.3 130.4 458 99.4 504.2 35.8 504.2 35.8 426.2"/>
      <path class="cls-19" d="M450,486.5c.6,0,.6-1,0-1s-.6,1,0,1h0Z"/>
      <path class="cls-19" d="M286.9,415.6c.6,0,.6-1,0-1s-.6,1,0,1h0Z"/>
      <path class="cls-19" d="M282.6,387.5c.6,0,.6-1,0-1s-.6,1,0,1h0Z"/>
      <polygon class="cls-11" points="0 400.1 6.6 299.9 6.6 395.6 31 299.9 6.6 436.8 45.7 339.9 18.8 456.7 42.3 426.1 27.3 462.1 86.1 358.8 42.3 462.1 73.9 417.1 45.7 486 86.1 440.8 57.8 500 0 500 0 400.1"/>
      <ellipse class="cls-21" cx="106.4" cy="352.2" rx="12.3" ry="1.7"/>
      <ellipse class="cls-21" cx="43.6" cy="312.3" rx="12.3" ry="1.7"/>
      <polygon class="cls-5" points="0 400.1 9.2 299.9 9.2 395.6 43.6 299.9 9.2 436.8 64.3 339.9 26.5 456.7 59.5 426.1 38.4 462.1 121.1 358.8 59.5 462.1 104 417.1 64.3 486 121.1 440.8 81.4 500 0 500 0 400.1"/>
      <polygon class="cls-15" points="113.5 555.2 127.7 491.2 130.4 410.2 105.8 410.2 105.8 482.7 91.8 559.5 113.5 555.2"/>
      <ellipse class="cls-21" cx="118.1" cy="410.9" rx="12.3" ry="1.7"/>
      <ellipse class="cls-2" cx="44.3" cy="312.1" rx="8" ry="1.1"/>
      <ellipse class="cls-2" cx="118.7" cy="410.9" rx="8" ry="1.1"/>
      <ellipse class="cls-2" cx="105.8" cy="352.2" rx="8" ry="1.1"/>
      <path class="cls-18" d="M0,177.3s39.6-9.2,56.4,21c0,0,1.5-28.7,24.3-29.2,0,0,12.5-42,56.5-38.4s47.6,76.8,47.6,76.8c0,0,27.8-5.2,33.9,25.7H0v-55.9h0Z"/>
      <path class="cls-7" d="M80.6,296.8s3.9,4.3,15.1,7.9h68.1c19-7.3,20.9-20.5,20.9-20.5,0,0,27.8,1.7,33.9-8.4H-.1v18.4s39.6,3,56.4-6.9c0,0,1.5,9.4,24.3,9.6,0,0,0-.1,0-.1Z"/>
      <path class="cls-18" d="M316.3,170.4s33-28.9,54.5-11c0,0,25.9-39.9,57.6-25.9,0,0,16.9,8.1,18.8,25.7,0,0,22.5-18.6,26.4-5.9s0,28.8,0,28.8h-193.3l36.1-11.7h-.1Z"/>
      <path class="cls-3" d="M370.8,287.1s1.8,2.8,5.1,6.7h69.8c.7-2,1.2-4.2,1.5-6.5,0,0,4.3,3.6,9.5,6.5h16.7c0-.2.2-.4.2-.6,3.9-12.7,0-28.8,0-28.8h-193.3l36.1,11.7s33,28.9,54.5,11h-.1Z"/>
      <circle class="cls-10" cx="86.1" cy="75.7" r="25.2"/>
      <polygon class="cls-10" points="86.1 37.4 88.8 61.3 99.9 40 93.8 63.3 111.9 47.4 97.7 66.9 120.3 58.6 100.1 71.7 124.2 72.1 100.6 77 122.9 86.1 99.2 82.2 116.6 98.7 95.9 86.5 106.2 108.2 91.4 89.3 93.1 113.3 86.1 90.3 79 113.3 80.8 89.3 65.9 108.2 76.2 86.5 55.5 98.7 73 82.2 49.3 86.1 71.5 77 48 72.1 72 71.7 51.8 58.6 74.4 66.9 60.3 47.4 78.4 63.3 72.3 40 83.4 61.3 86.1 37.4"/>
    </g>
  </g>
  <g>
    <circle class="cls-16" cx="-211.3" cy="423.7" r="38.8"/>
    <path class="cls-1" d="M-197.2,439.4c-6.9-4.2-10-7.1-11-9-1.8,0-3.6-2.5-3.6-2.5,0,0-21.4-11.4-31.9-25.3-.3.5-.7,1.1-1,1.6-6,10.3-6.7,22.3-2.9,32.7,8,0,21.1-.9,30.7-6.4,0,0,13.3-2.9,7.8,9.4,0,0-4,12.4-11.7,21.4,15.6,4,32.4-2,41.8-15.7-6.3-.9-12.6-2.7-18.1-6.1h-.1q0-.1,0-.1Z"/>
    <path class="cls-1" d="M-204.8,414.8c.1,5.6-.2,9.4-.8,11.7.6-.1,1.1-.1,1.1-.1,0,0,15.5-8.6,30.9-11.9-2.4-9.9-8.7-18.9-18.2-24.4-7.6-4.4-16.2-6-24.3-5,5.7,8.1,11,18.6,11.2,29.7h.1,0Z"/>
    <path class="cls-1" d="M-215.6,424.4c2.6-4.5,8.3-6,12.8-3.4s6,8.3,3.4,12.8-8.3,6-12.8,3.4-6-8.3-3.4-12.8Z"/>
  </g>
</svg>