<?xml version="1.0" encoding="UTF-8"?>
<svg id="Laag_1" data-name="Laag 1" xmlns="http://www.w3.org/2000/svg" xmlns:xlink="http://www.w3.org/1999/xlink" viewBox="0 0 500 500">
  <defs>
    <style>
      .cls-1 {
        stroke: #490000;
        stroke-miterlimit: 10;
        stroke-width: 2px;
      }

      .cls-1, .cls-2 {
        fill: none;
      }

      .cls-3 {
        clip-path: url(#clippath);
      }

      .cls-2, .cls-4, .cls-5, .cls-6, .cls-7, .cls-8, .cls-9, .cls-10 {
        stroke-width: 0px;
      }

      .cls-4 {
        fill: #82952c;
      }

      .cls-5 {
        fill: #f4fafc;
      }

      .cls-6 {
        fill: #9abb4d;
      }

      .cls-7 {
        fill: #d9eef1;
      }

      .cls-8 {
        fill: #a0c14e;
      }

      .cls-9 {
        fill: #8dab37;
      }

      .cls-10 {
        fill: #875a35;
      }
    </style>
    <clipPath id="clippath">
      <rect class="cls-2" x="0" y="0" width="500" height="500"/>
    </clipPath>
  </defs>
  <g class="cls-3">
    <line class="cls-1" x1="167.67" y1="375.77" x2="167.67" y2="400.29"/>
    <rect class="cls-7" x="0" y="0" width="500" height="472.6"/>
    <line class="cls-1" x1="94.77" y1="376.77" x2="94.77" y2="401.29"/>
    <line class="cls-1" x1="60.06" y1="376.77" x2="60.06" y2="402.54"/>
    <line class="cls-1" x1="29.26" y1="376.77" x2="29.26" y2="402.54"/>
    <path class="cls-5" d="M226.9,406.3s14.2-71.8,90.6-58.2c0,0,27.3-84.5,137.1-56.4,0,0,23.3,4.2,45.3,62.9v71.7l-273-4.3v-15.7h0Z"/>
    <line class="cls-1" x1="374.1" y1="377.53" x2="374.1" y2="402.05"/>
    <line class="cls-1" x1="404.02" y1="377.53" x2="404.02" y2="402.05"/>
    <line class="cls-1" x1="430.98" y1="377.53" x2="430.98" y2="402.05"/>
    <line class="cls-1" x1="458.87" y1="376.92" x2="458.87" y2="401.44"/>
    <line class="cls-1" x1="-.45" y1="377.68" x2="503.85" y2="377.68"/>
    <line class="cls-1" x1="-.45" y1="388.33" x2="503.85" y2="388.33"/>
    <line class="cls-1" x1="-.45" y1="399.61" x2="503.85" y2="399.61"/>
    <path class="cls-5" d="M269.5,20.1s-14.2,71.8-90.6,58.2c0,0-27.3,84.5-137.1,56.4,0,0-23.3-4.2-45.3-62.9V0l273,4.3v15.8Z"/>
    <path class="cls-9" d="M-1.1,406.3c-.3-1.4,0-2.5.6-3.7l-3.9.5c1.5,1.5,3.1,3.1,4.6,4.6s3.7.7,4.2-1.1,1.1-3.8,1.6-5.8l-4.2,1.1,4.9,5.9c1.2,1.4,3.9.7,4.2-1.1.3-1.8.9-3.2,2.1-4.5l-3,.4c2.1,1.4,4.2,2.7,6.4,4.1,2.2,1.4,1.9,1.5,3,1.8s1.9,0,2.8-.2c5.1-.7,10.2-1.5,15.4-2.2l-2.4-.6c1.1,1.4,2.3,2.7,3.4,4.1s2.8,1,3.5,0c1.4-1.8,2.8-3.7,4.3-5.5s-1.2-5.9-3.5-3.5c-2.3,2.4-1.3,4.7,1,5.9,2.3,1.2,4.9-.7,6.3-2.7l-2.8,1.1c9.7,2.5,19.8,3,29.6,1.3,9.8-1.7,9.7-3.1,14.7-.9s8.3,3.8,12.9,4.7c18.2,3.5,36.5-3.4,54.8-1.7,2.6.2,5.1.9,7.7.8s4.6-1.1,6.9-2.3c4.1-2,9,.9,8.5,5.7s3.6,3.4,4.7,1.3,1.2-2.4,1.8-3.5,1.1-1.5,2.4-2,3.8-1.2,5.8-1.4c4.2-.5,8.6-.1,12.8.3s9.4,1,14.2,1.5,2,.4,2.9.3,2.2-.6,3.3-.9c2.2-.6,4.5-1.1,6.8-1.4,4.5-.6,9.1-.6,13.6.2s8.6,2.5,13,3.7c6.8,1.9,15.7,0,16.6-8.2l-3.2,2.4c6.5,2.5,13.6,3.5,20.5,3s6.7-.8,9.9-1.8,2.5-.9,3.9-.9.9.2,1.4.2c.2,0,.4.1.6.2.4.3.4,0,0-.7-1.1,2.1,1.2,4.9,3.4,3.4s5-3.4,7.5-5.1l-3.7-1.5c1.5,8.1,10.8,12.7,18.5,10.7s3.6-1.4,5-2.7,2.5-1.9,2.6-2.5l-1.2-1.4c0-.5.6-.7,1.4-.3,1.9-.3,1.4-.3.2-1.1-4.7-3.2-10.5-4.1-16-2.9s-2.2,1.9-1.7,3.1,1,3,1.6,4.5,2.7,2.4,4.2,1.1c4.9-4.2,12-5.3,18-2.8s2.1.4,3-.4c2.1-1.7,4.1-3.3,6.2-5l-4.3-1.8c.5,3.6,2.4,6.8,5.8,8.3s7.2-3.4,11-4.1,4.9.3,7,.4l8,.5c1.6.1,13.2.2,13.3,1.1l.3-1.9.4-.3c-2.7,1.8-.4,5.6,2.5,4.3s4.6-3.2,5.8-5.8l-4.6-.6c.4,1.8.8,3.7,1.2,5.5s4.3,2.4,4.8,0,1.5-4.5,0-4.1l2.8,3.7c1.2-1.8,2.4-3.6,3.7-5.3l-2.2,1.2c3.3.3,6.6.7,9.9,1l-2.4-1.8c.3,1.8.5,3.5.8,5.3s2.4,2.3,3.7,1.5c3.5-2.3,7-4.7,10.4-7l-3.7-2.8c-.8,3.6.6,7.4,3.7,9.5s3.3,1.8,4.9,1.3,2-1.6,2.8-2.4,2-2.1,3-3.2.9-3.1-.5-3.9c-3.9-2.2-8.4.5-8.7,4.9l4.9-.7c-.2-1.4.3-2.7,1.2-3.7,1.6-1.8,0-4.8-2.4-4.2s-3.6,4.9-1.4,7.1c3.2,3.1,7-.2,9-2.8h-4.3c.9,1.6,1.8,3.2,2.6,4.7s4.9,1.3,4.7-1.3l-.7-.5c-1.3,2.4,1.9,5.2,3.9,3s2.6-2.8,4-4.2l-3.9-.5c.1.2,2.6-1.2,3.3.2s.2.9-.1,1.4c-1,1.4.3,4,2.2,3.8,4.2-.6,7.7-3.2,8.7-7.5l-4.6.6c1.2,2.4,2.8,4.5,4.9,6.2s5.3-.4,3.9-3c-.2.8-.2,1,.2.6.3-.2.5-.3.8-.4.6-.2,1.3-.2,1.9-.3,1.6-.2,3.2-.3,4.9-.5l-2.5-2.5c-.6,7.3,11.5,4.6,15.3,4.3l-2.5-2.5c.2,2.7,1.2,5,3.4,6.7s3.8.9,4.2-1.1c.8-4.1-.2-7.7-2.8-10.9l-3,3.9c2.8,2,5.5,3.9,8.3,5.9s5.1-2.5,2.5-4.3-5.5-3.9-8.3-5.9-4.7,1.9-3,3.9,1.9,3.9,1.5,6l4.2-1.1c-1.1-.9-1.8-1.8-1.9-3.2s-1.1-2.6-2.5-2.5c-2.2.2-4.3.4-6.5.6s-1.6.2-2.4.2-1.4-.3-1.4,0c0-1.2-1.2-2.6-2.5-2.5-3.9.4-16,1-12.1,8.2l3.9-3c-1.8-1.5-3.1-3.1-4.1-5.2s-4.1-1.4-4.6.6-1.8,3.6-3.8,3.9l2.2,3.8c3.6-5.2-3.6-13.1-8.6-8.1s-1.8,6.2,1.6,6.7,5.4-2.5,3.8-5.2-2.8-1.7-3.9-.5-2.6,2.8-4,4.2l3.9,3c1.4-2.6.5-6.1-2.6-7.1s-6.3,1.9-6,5.1l4.7-1.3c-.9-1.6-1.8-3.2-2.6-4.7s-3.2-1.4-4.3,0c-.3.4-.7.8-1.1,1.2.2.8-.1,1.4-.9,1.9l-2.4-4.2c-2.2,2.5-3,5.3-2.5,8.6s4.7,2,4.9-.7.8-.8,1.2-.6l-.5-3.9c-1.5,1.6-3.1,3.3-4.6,4.9l1.8-.7c-2.1-.3-3.5-2.7-3-4.6s-1.8-4.1-3.7-2.8c-3.5,2.3-7,4.7-10.4,7l3.7,1.5c-.3-1.8-.5-3.5-.8-5.3s-1.4-1.7-2.4-1.8c-3.3-.3-6.6-.7-9.9-1s-1.7.6-2.2,1.2c-1.2,1.8-2.4,3.6-3.7,5.3s.8,4.2,2.8,3.7c3.2-.8,3.2-5.1.5-6.7s-6,1.8-6.6,4.7h4.8c-.4-1.8-.8-3.7-1.2-5.5s-3.7-2.6-4.6-.6-2.1,3.1-4,4l2.5,4.3c3-1.9,1.6-5.3-1.1-6.7s-4.3-.8-6.4-.9l-7-.4c-5-.3-10-.6-15.1-1s-3.7-.2-5.9,1.1-4.3,2.5-6.5,3.8l1.9-.3c-1.8-.6-3.2-2.1-3.4-4s-2.5-3.2-4.3-1.8-4.1,3.3-6.2,5l3-.4c-8.1-3.5-17.3-2.2-24,3.6l4.2,1.1c-.5-1.5-1-3-1.6-4.5l-1.7,3.1c3.2-.7,6.5-.4,9.6.9s3.9,3.4,6.2,2.4c4.4-1.9,1.9-8.7-2.9-7.3s-3.5,2.9-5.4,4.2-3.7,1.4-5.7,1.2c-4.2-.4-8-3.2-8.9-7.4s-2.4-2.3-3.7-1.5c-2.5,1.7-5,3.4-7.5,5.1l3.4,3.4c1.4-2.6.4-5.1-2.3-6.3s-6.5-.6-9.7.3c-9.1,2.6-18.6,2-27.4-1.3s-3,1-3.2,2.4c-.5,4.1-6,4.4-9,3.7-4.3-.9-8.2-2.8-12.5-3.7-8.2-1.7-16.8-1.4-24.8,1s-9.1,0-13.5-.5-8.2-1-12.4-1.1-7.8.2-11.5,1.3c-3.7,1.1-3.8,1.1-5.2,2.2s-2.6,4.3-3.6,6.2l4.7,1.3c.4-3.8-1.6-7.4-4.7-9.5s-7.6-2.4-11.3-.4c-3.7,2-4.3,1.8-7.1,1.4s-5-.7-7.6-.8c-5-.2-10.1.1-15.1.6-9.7,1-19.4,2.7-29.1,2.2s-9.5-1.1-13.9-2.8c-4.4-1.7-8.4-4.6-13.7-3.8-3,.4-5.9,1.4-8.9,1.9s-5.7.8-8.6.9c-6.4.2-12.6-.5-18.8-2.1-6.2-1.6-2.2.2-2.8,1.1-.9.8-.7,1.7.5,2.9l-3.5-3.5c-1.4,1.8-2.8,3.7-4.3,5.5h3.5c-1.1-1.3-2.4-3.6-3.9-4.5s-3.8,0-5.4.2c-4.5.6-8.9,1.3-13.4,1.9l1.9.3c-2.9-1.9-5.8-3.7-8.8-5.6s-2.3-.4-3,.4c-1.7,1.9-2.9,4.1-3.4,6.7l4.2-1.1c-1.6-2-3.3-3.9-4.9-5.9-1.6-2-3.7-.6-4.2,1.1s-1.1,3.8-1.6,5.8l4.2-1.1c-1.5-1.5-3.1-3.1-4.6-4.6s-3.1-.9-3.9.5c-1.3,2.4-1.7,4.9-1.1,7.6s5.5,1.8,4.8-1.3h0l-.1-.6Z"/>
    <rect class="cls-8" x="0" y="402.2" width="500" height="97.8"/>
    <path class="cls-9" d="M248.5,271.3c0-20.7-11.3-38.7-28.1-48.3,4.1-7.8,6.5-16.6,6.5-26,0-19.7-10.3-37-25.7-46.8,1.3-3.8,2-7.9,2-12.1,0-20.7-16.8-37.5-37.5-37.5s-2.8,0-4.2.2c-10-14.4-26.7-23.9-45.6-23.9-30.7,0-55.5,24.9-55.5,55.5s2.6,19.2,7.2,27.3c-25.3,5.2-44.2,27.6-44.2,54.4s7.7,32.4,19.9,42.6c-10.6,8.2-17.4,21-17.4,35.4,0,24.7,20,44.8,44.8,44.8s13.8-1.7,19.7-4.6c10.8,18.7,30.9,31.3,54.1,31.3s47.5-15.4,57.1-37.3c26.6-4.1,47-27.1,47-54.9l-.1-.1Z"/>
    <g>
      <path class="cls-4" d="M224.3,206.9c.5.3,1,.6,1.5.9.4-1.9.7-3.9.8-5.9-.7,1.7-1.4,3.4-2.3,5Z"/>
      <path class="cls-4" d="M174.6,101.7c-.5-.1-.9-.3-1.4-.4,0,.1.2.3.3.4h1.1Z"/>
      <path class="cls-4" d="M208,295.6c-8.3,18.9-27.2,32.1-49.1,32.1s-37.2-10.8-46.5-26.9c-5.1,2.5-10.9,4-17,4-21.3,0-38.5-17.2-38.5-38.5s5.9-23.4,15-30.4c-10.4-8.8-17.1-21.9-17.1-36.6,0-23.1,16.3-42.3,38.1-46.8-8.6-5.3-26.6-25.9-10.5-64.2-13.3,10.1-21.9,26.2-21.9,44.2s2.6,19.2,7.2,27.3c-25.3,5.2-44.2,27.6-44.2,54.4s7.7,32.4,19.9,42.6c-10.6,8.2-17.4,21-17.4,35.4,0,24.7,20,44.8,44.8,44.8s13.8-1.7,19.7-4.6c10.8,18.7,30.9,31.3,54.1,31.3s47.5-15.4,57.1-37.3c26.6-4.1,47-27.1,47-54.9s-.5-8.1-1.3-11.9c-4.4,18.8-19.9,33.3-39.2,36.3l-.2-.3Z"/>
    </g>
    <polygon class="cls-10" points="127.4 327.8 133.7 332.4 184 260.1 180.3 257.3 127.4 327.8"/>
    <polygon class="cls-10" points="135.8 282.5 130.2 286.6 85.7 222.6 89.1 220.2 135.8 282.5"/>
    <polygon class="cls-10" points="140.9 416.6 123.7 416.6 130.6 166.8 134 166.8 140.9 416.6"/>
    <path class="cls-9" d="M204.1,150.6c1.4-5.4,7.5-8.5,7.5-8.5,0,0,3.7,5.7,2.3,11.1-1.4,5.4-7.5,8.5-7.5,8.5,0,0-3.7-5.7-2.3-11.1Z"/>
    <path class="cls-9" d="M48.6,198.8c3.4-4.5,10.2-5,10.2-5,0,0,1.3,6.7-2.1,11.2s-10.2,5-10.2,5c0,0-1.3-6.7,2.1-11.2Z"/>
    <path class="cls-6" d="M151.7,139.1c3.4-4.5,10.2-5,10.2-5,0,0,1.3,6.7-2.1,11.2s-10.2,5-10.2,5c0,0-1.3-6.7,2.1-11.2Z"/>
    <path class="cls-6" d="M136.7,118.6c2.7,4.9.5,11.3.5,11.3,0,0-6.6-1.5-9.4-6.4-2.7-4.9-.5-11.3-.5-11.3,0,0,6.6,1.5,9.4,6.4Z"/>
    <path class="cls-6" d="M184.7,200.4c4.9,2.7,6.4,9.4,6.4,9.4,0,0-6.4,2.2-11.3-.5s-6.4-9.4-6.4-9.4c0,0,6.4-2.2,11.3.5Z"/>
    <path class="cls-4" d="M90.4,297.9c-2.2,5.1-8.7,7.3-8.7,7.3,0,0-2.9-6.2-.6-11.3,2.2-5.1,8.7-7.3,8.7-7.3,0,0,2.9,6.2.6,11.3Z"/>
    <path class="cls-4" d="M97.3,184.6c-2.8-4.9-.7-11.3-.7-11.3,0,0,6.7,1.4,9.5,6.3,2.8,4.9.7,11.3.7,11.3,0,0-6.7-1.4-9.5-6.3Z"/>
    <path class="cls-4" d="M193.5,304c4.7,3.1,5.7,9.8,5.7,9.8,0,0-6.6,1.8-11.3-1.3-4.7-3.1-5.7-9.8-5.7-9.8,0,0,6.6-1.8,11.3,1.3h0Z"/>
    <path class="cls-9" d="M238.6,243.5c-5-2.5-6.8-9.1-6.8-9.1,0,0,6.3-2.5,11.3,0s6.8,9.1,6.8,9.1c0,0-6.3,2.5-11.3,0Z"/>
    <path class="cls-9" d="M243,231.3c-3.1,4.6-9.9,5.6-9.9,5.6,0,0-1.7-6.6,1.5-11.2,3.1-4.6,9.9-5.6,9.9-5.6,0,0,1.7,6.6-1.5,11.2Z"/>
    <line class="cls-1" x1="317.3" y1="377.53" x2="317.3" y2="402.05"/>
    <path class="cls-4" d="M24.9,264.6c-3.2-4.6-1.6-11.2-1.6-11.2,0,0,6.8.9,9.9,5.5,3.2,4.6,1.6,11.2,1.6,11.2,0,0-6.8-.9-9.9-5.5h0Z"/>
    <path class="cls-4" d="M30.2,280c-4.7,3.1-11.3,1.4-11.3,1.4,0,0,1-6.7,5.6-9.8,4.7-3.1,11.3-1.4,11.3-1.4,0,0-1,6.7-5.6,9.8Z"/>
    <g>
      <g>
        <path class="cls-9" d="M439.2,306.7c2.2-4.2,3.5-9,3.5-14.1,0-16.6-13.5-30.1-30.1-30.1s-5.2.3-7.7,1c-5.5-8.2-14.9-13.6-25.5-13.6-17,0-30.7,13.7-30.7,30.7s.6,6.9,1.7,10.1c-13.4,2.6-23.5,14.4-23.5,28.5s4.3,17.5,11.1,22.8c-.3,1.6-.4,3.3-.4,5,0,15.6,12.6,28.2,28.2,28.2s8.9-1.1,12.8-3.1c3.8,5.6,10.2,9.3,17.5,9.3s16.5-5.5,19.5-13.3c1.8.3,3.6.4,5.4.4,18.6,0,33.6-15.1,33.6-33.6s-6.2-22.3-15.5-28.3l.1.1Z"/>
        <g>
          <path class="cls-4" d="M442.5,295.7c-.2.3-.3.7-.5,1,.1,0,.2.2.3.2,0-.4.1-.8.2-1.3v.1Z"/>
          <path class="cls-4" d="M454.5,332.3c-4.1,12.2-15.6,20.9-29.1,20.9s-3.3-.1-4.9-.4c-2.8,7.1-9.7,12.1-17.8,12.1s-12.5-3.4-15.9-8.5c-14.3,11.6-35.4-4-32.7-16-7.7-1.1-13.4-12.3-13.4-21.2,0-13.6,9.7-24.9,22.6-27.4-1.1-3-1.6-6.3-1.6-9.7,0-16.3,13.2-29.5,29.5-29.5s.3,0,.5,0c-3.7-1.6-7.8-2.5-12.2-2.5-17,0-30.7,13.7-30.7,30.7s.6,6.9,1.7,10.1c-13.4,2.6-23.5,14.4-23.5,28.5s4.3,17.5,11.1,22.8c-.3,1.6-.4,3.3-.4,5,0,15.6,12.6,28.2,28.2,28.2s1.1,0,1.6,0h2.3c.3,0,.6,0,.8-.1.3,0,.5,0,.8-.1.2,0,.5-.1.7-.2.3,0,.5-.1.8-.2.2,0,.4-.1.6-.2.3,0,.6-.2.9-.3h.2c1.4-.5,2.8-1,4.1-1.7,3.8,5.6,10.2,9.3,17.5,9.3s16.5-5.5,19.5-13.3c1.8.3,3.6.4,5.4.4,18.6,0,33.6-15.1,33.6-33.6s0-1.8-.1-2.7l-.1-.4Z"/>
        </g>
      </g>
      <g>
        <path class="cls-9" d="M419.7,261.8c1.9-1.8,5.1-1.5,5.1-1.5,0,0,0,3.2-1.9,5s-5.1,1.5-5.1,1.5c0,0,0-3.2,1.9-5Z"/>
        <path class="cls-9" d="M341.5,305.1c2.3-1.3,5.3-.2,5.3-.2,0,0-.7,3.1-3.1,4.4-2.3,1.3-5.3.2-5.3.2,0,0,.7-3.1,3.1-4.4Z"/>
        <path class="cls-6" d="M416.1,320.5c1.8-1.9,5-1.8,5-1.8,0,0,.2,3.2-1.6,5.1s-5,1.8-5,1.8c0,0-.2-3.2,1.6-5.1Z"/>
        <path class="cls-6" d="M410.6,283.1c1.3,2.3.2,5.3.2,5.3,0,0-3.1-.7-4.4-3-1.3-2.3-.2-5.3-.2-5.3,0,0,3.1.7,4.4,3Z"/>
        <path class="cls-6" d="M414.5,286.3c1.7-2,4.9-2,4.9-2,0,0,.4,3.2-1.4,5.2-1.7,2-4.9,2-4.9,2,0,0-.4-3.2,1.4-5.2Z"/>
        <path class="cls-4" d="M353.9,375.4c-2.5.9-5.3-.6-5.3-.6,0,0,1.2-3,3.7-3.9s5.3.6,5.3.6c0,0-1.2,3-3.7,3.9Z"/>
        <path class="cls-4" d="M356.1,350c-.1-2.6,2.2-4.9,2.2-4.9,0,0,2.5,2,2.6,4.7.1,2.6-2.2,4.9-2.2,4.9,0,0-2.5-2-2.6-4.7Z"/>
        <path class="cls-4" d="M365,314.9c-1.6-2.1-1-5.2-1-5.2,0,0,3.2.2,4.8,2.3s1,5.2,1,5.2c0,0-3.2-.2-4.8-2.3Z"/>
        <path class="cls-4" d="M366.3,323.4c-2.4,1.2-5.3,0-5.3,0,0,0,.9-3.1,3.2-4.3,2.4-1.2,5.3,0,5.3,0,0,0-.9,3.1-3.2,4.3Z"/>
        <path class="cls-4" d="M377.3,333c2-1.7,5.2-1.3,5.2-1.3,0,0,0,3.2-2.1,4.9-2,1.7-5.2,1.3-5.2,1.3,0,0,0-3.2,2.1-4.9Z"/>
        <path class="cls-4" d="M439.1,348.6c-.5,2.6-3.3,4.2-3.3,4.2,0,0-1.9-2.6-1.4-5.2s3.3-4.2,3.3-4.2c0,0,1.9,2.6,1.4,5.2Z"/>
        <path class="cls-9" d="M449.4,320.7c-2.4-1.2-3.2-4.3-3.2-4.3,0,0,3-1.2,5.3,0s3.2,4.3,3.2,4.3c0,0-3,1.2-5.3,0Z"/>
        <path class="cls-9" d="M449.4,314.8c-1.5,2.2-4.7,2.6-4.7,2.6,0,0-.8-3.1.7-5.3,1.5-2.2,4.7-2.6,4.7-2.6,0,0,.8,3.1-.7,5.3Z"/>
        <path class="cls-4" d="M324.1,322.3c-1.5-2.2-.7-5.3-.7-5.3,0,0,3.2.4,4.7,2.6s.7,5.3.7,5.3c0,0-3.2-.4-4.7-2.6Z"/>
        <path class="cls-4" d="M329.6,330.1c-1.5,2.2-4.7,2.5-4.7,2.5,0,0-.7-3.1.8-5.3,1.5-2.2,4.7-2.5,4.7-2.5,0,0,.7,3.1-.8,5.3Z"/>
      </g>
    </g>
    <g>
      <polygon class="cls-10" points="393.9 361.8 396.8 365 410.1 351.8 408.4 349.9 393.9 361.8"/>
      <polygon class="cls-10" points="393.9 373.3 390.1 377.5 372.3 359.9 374.6 357.4 393.9 373.3"/>
      <polygon class="cls-10" points="400.5 408.9 387.3 408.9 392.6 319.1 395.2 319.1 400.5 408.9"/>
    </g>
    <g>
      <path class="cls-9" d="M160.3,376.2c-8.7-.6-16.6,2.3-21,7.3-3.2-1.5-6.9-2.5-10.8-2.8-8.3-.6-15.8,2.1-20.3,6.6-1.6-.5-3.3-.9-5.1-1-8.8-.6-16.2,4.1-16.7,10.5s0,.9,0,1.3c-6.3,2.7-10.7,7.6-11.1,13.5-.7,9.5,9.2,18,22.2,19,4.2.3,8.2-.2,11.7-1.4,1.6,8,10.6,14.6,21.9,15.4,7.2.5,13.8-1.4,18.4-4.9,3.2,3.5,8.5,6.1,14.5,6.5,10.4.8,19.4-4.9,19.9-12.6s-.4-4.3-1.5-6.3c8.1-2.8,13.9-8.7,14.4-15.9.6-7.9-5.4-15.2-14.5-18.9-1.1-8.4-10.4-15.5-22.1-16.3h.1Z"/>
      <g>
        <path class="cls-4" d="M132.6,381.7c.1-.1.3-.3.4-.4-.8-.2-1.6-.3-2.5-.4.7.3,1.4.6,2.1.9v-.1Z"/>
        <path class="cls-4" d="M87.1,393.9c0,.1-.1.3-.2.4h.2v-.4Z"/>
        <path class="cls-4" d="M169.7,389.5c7.8,3.2,12.9,9.4,12.4,16.3-.5,6.2-5.4,11.3-12.4,13.6,1,1.7,1.4,3.5,1.3,5.4-.5,6.6-8.2,11.5-17.1,10.8s-9.7-2.5-12.5-5.6c-3.9,3-9.6,4.6-15.8,4.2-9.7-.7-17.5-6.4-18.9-13.3-2.4,2.5-11.6,7.5-27.4,1.3,4,4.5,10.5,7.6,18.2,8.2s8.2-.2,11.7-1.4c1.6,8,10.6,14.6,21.9,15.4,7.2.5,13.8-1.4,18.4-4.9,3.2,3.5,8.5,6.1,14.5,6.5,10.4.8,19.4-4.9,19.9-12.6s-.4-4.3-1.5-6.3c8.1-2.8,13.9-8.7,14.4-15.9.6-7.9-5.4-15.2-14.5-18.9-1.1-8.4-10.4-15.5-22.1-16.3s-3.4-.1-5.1,0c7.8,2,13.6,7.2,14.4,13.3l.2.2Z"/>
      </g>
      <path class="cls-4" d="M108,388.6c-2.8-4.9-.7-11.3-.7-11.3,0,0,6.7,1.4,9.5,6.3,2.8,4.9.7,11.3.7,11.3,0,0-6.7-1.4-9.5-6.3Z"/>
      <path class="cls-4" d="M151.5,395.1c4.8-2.9,11.3-.9,11.3-.9,0,0-1.3,6.7-6.1,9.6-4.8,2.9-11.3.9-11.3.9,0,0,1.3-6.7,6.1-9.6Z"/>
      <path class="cls-6" d="M101.6,397.8c4.9,2.7,6.4,9.4,6.4,9.4,0,0-6.4,2.2-11.3-.5s-6.4-9.4-6.4-9.4c0,0,6.4-2.2,11.3.5Z"/>
    </g>
    <path class="cls-9" d="M315.6,400.1c-3.1,4.6-9.9,5.6-9.9,5.6,0,0-1.7-6.6,1.5-11.2,3.1-4.6,9.9-5.6,9.9-5.6,0,0,1.7,6.6-1.5,11.2Z"/>
    <path class="cls-9" d="M320.5,401.5c-2.3,3.4-7.1,4-7.1,4,0,0-1.2-4.8,1.1-8.1,2.3-3.4,7.1-4,7.1-4,0,0,1.2,4.8-1.1,8.1Z"/>
    <g>
      <path class="cls-9" d="M463.4,413.2c-14.1,1.9-25.6,9.3-31,18.7-5.6-1.3-11.8-1.7-18.2-.8-13.4,1.9-24.5,8.6-30.2,17.3-2.7-.3-5.5-.3-8.4.1-14.2,1.9-24.5,12-23,22.4s.3,1.4.5,2.1c-9.2,6.4-14.5,15.7-13.1,25.2,2.1,15.4,20.8,25.6,41.7,22.7,6.8-.9,13-3.1,18.1-6.2,5.3,12.2,21.9,19.7,40.2,17.2,11.7-1.6,21.6-6.9,27.7-14,6.3,4.5,15.5,6.8,25.4,5.4,16.9-2.3,29.2-14.3,27.5-26.8-.5-3.6-2.1-6.8-4.5-9.5,12-7.2,19.2-18.5,17.6-30.2-1.8-12.9-13.8-22.5-29.4-25.3-4.6-13-21.8-21.1-40.7-18.5l-.2.2Z"/>
      <g>
        <path class="cls-4" d="M421.2,431.4c.2-.3.3-.6.5-.8-1.3,0-2.7,0-4.1.1,1.2.2,2.4.4,3.6.7h0Z"/>
        <path class="cls-4" d="M352.8,466.3c0,.2-.1.5-.1.7,0,0,.2-.1.3-.2,0-.2,0-.4-.1-.5h-.1Z"/>
        <path class="cls-4" d="M482.9,431.3c13.5,2.4,23.8,10.7,25.3,21.7,1.4,10-4.8,19.8-15.1,25.9,2.1,2.3,3.5,5.1,3.9,8.2,1.5,10.7-9.1,21-23.6,23-8.5,1.2-16.4-.8-21.8-4.7-5.3,6.1-13.8,10.7-23.8,12.1-15.7,2.2-30-4.3-34.6-14.8-3,4.8-15.9,15.8-43.1,11.3,7.8,5.8,19.4,8.6,31.7,6.9,6.8-.9,13-3.1,18.1-6.2,5.3,12.2,21.9,19.7,40.2,17.2,11.7-1.6,21.6-6.9,27.7-14,6.3,4.5,15.5,6.8,25.4,5.4,16.9-2.3,29.2-14.3,27.5-26.8-.5-3.6-2.1-6.8-4.5-9.5,12-7.2,19.2-18.5,17.6-30.2-1.8-12.9-13.8-22.5-29.4-25.3-4.6-13-21.8-21.1-40.7-18.5-2.8.4-5.5,1-8.1,1.8,13.1.5,24.1,6.9,27.5,16.3l-.2.2Z"/>
      </g>
      <path class="cls-4" d="M384.4,450.8c-6.1-6.8-4.9-17.8-4.9-17.8,0,0,11.1,0,17.2,6.8,6.1,6.8,4.9,17.8,4.9,17.8,0,0-11.1,0-17.2-6.8Z"/>
      <path class="cls-4" d="M455.9,446.4c6.7-6.2,17.7-5.3,17.7-5.3,0,0,.3,11.1-6.4,17.3-6.7,6.2-17.7,5.3-17.7,5.3,0,0-.3-11.1,6.4-17.3Z"/>
      <path class="cls-6" d="M377.2,467.6c8.7,2.7,13.4,12.8,13.4,12.8,0,0-9.5,5.7-18.2,3s-13.4-12.8-13.4-12.8c0,0,9.5-5.7,18.2-3Z"/>
    </g>
    <g>
      <path class="cls-9" d="M29.1,452.9c-9.4-4-19.2-3.6-25.9.2-2.9-2.9-6.6-5.3-10.9-7.1-9-3.8-18.3-3.6-24.9-.3-1.5-1.2-3.3-2.2-5.2-3-9.4-4-19.5-1.6-22.4,5.4-.2.5-.4,1-.5,1.4-8,.6-14.6,4.4-17.3,10.7-4.3,10.3,3.5,23.4,17.4,29.3,4.5,1.9,9.1,2.8,13.4,2.8-1.2,9.5,6.3,20.1,18.5,25.3,7.8,3.3,15.8,3.6,22.2,1.5,2.2,5.1,7.1,9.9,13.6,12.6,11.3,4.7,23.2,1.8,26.7-6.5,1-2.4,1.2-4.9.7-7.5,10,0,18.6-4.4,21.9-12.1,3.6-8.6-.3-18.9-8.9-26.3,1.9-9.7-5.7-21-18.3-26.3l-.1-.1Z"/>
      <path class="cls-4" d="M34.5,471.1c7.4,6.4,10.8,15.3,7.7,22.6-2.8,6.7-10.2,10.4-18.8,10.5.4,2.2.3,4.4-.6,6.5-3,7.1-13.3,9.6-23,5.5-5.6-2.4-9.8-6.4-11.7-10.8-5.5,1.8-12.4,1.5-19.1-1.3-10.5-4.4-16.9-13.6-15.9-21.7-3.6,1.9-15.6,4-30.7-8.8,2.7,6.4,8.8,12.4,17,15.8,4.5,1.9,9.1,2.8,13.4,2.8-1.2,9.5,6.3,20.1,18.5,25.3,7.8,3.3,15.8,3.6,22.2,1.5,2.2,5.1,7.1,9.9,13.6,12.6,11.3,4.7,23.2,1.8,26.7-6.5,1-2.4,1.2-4.9.7-7.5,10,0,18.6-4.4,21.9-12.1,3.6-8.6-.3-18.9-8.9-26.3,1.9-9.7-5.7-21-18.3-26.3-1.9-.8-3.7-1.4-5.6-1.8,7.9,5.1,12.4,13,11,20.1l-.1-.1Z"/>
      <path class="cls-4" d="M12.3,470.5c6.4-1.4,12.8,3.2,12.8,3.2,0,0-3.9,6.9-10.3,8.3s-12.8-3.2-12.8-3.2c0,0,3.9-6.9,10.3-8.3Z"/>
    </g>
    <line class="cls-1" x1="223.06" y1="377.68" x2="223.06" y2="402.2"/>
    <line class="cls-1" x1="196.17" y1="375.77" x2="196.17" y2="400.29"/>
    <line class="cls-1" x1="255.3" y1="377.68" x2="255.3" y2="402.2"/>
    <line class="cls-1" x1="288.72" y1="377.53" x2="288.72" y2="402.05"/>
    <line class="cls-1" x1="345.69" y1="377.53" x2="345.69" y2="402.05"/>
  </g>
</svg>