<?xml version="1.0" encoding="UTF-8"?>
<svg id="Laag_1" data-name="Laag 1" xmlns="http://www.w3.org/2000/svg" xmlns:xlink="http://www.w3.org/1999/xlink" viewBox="0 0 500 500">
  <defs>
    <style>
      .cls-1 {
        fill: #89b748;
      }

      .cls-1, .cls-2, .cls-3, .cls-4, .cls-5, .cls-6, .cls-7, .cls-8, .cls-9 {
        stroke-width: 0px;
      }

      .cls-2 {
        fill: #6f9933;
      }

      .cls-10 {
        clip-path: url(#clippath);
      }

      .cls-3 {
        fill: none;
      }

      .cls-4 {
        fill: #8fddff;
      }

      .cls-5 {
        fill: #866135;
      }

      .cls-6 {
        fill: #76ab36;
      }

      .cls-11 {
        clip-path: url(#clippath-1);
      }

      .cls-12 {
        clip-path: url(#clippath-2);
      }

      .cls-7 {
        fill: #6e952d;
      }

      .cls-8 {
        fill: #7cba3d;
      }

      .cls-9 {
        fill: #fff;
      }
    </style>
    <clipPath id="clippath">
      <rect class="cls-3" x="-1.64" width="501.64" height="501.64"/>
    </clipPath>
    <clipPath id="clippath-1">
      <rect class="cls-3" width="500" height="500"/>
    </clipPath>
    <clipPath id="clippath-2">
      <rect class="cls-3" width="504.37" height="504.37"/>
    </clipPath>
  </defs>
  <g class="cls-10">
    <g class="cls-11">
      <g class="cls-12">
        <rect class="cls-4" x="-1.64" y="-1.25" width="504.37" height="464.38"/>
        <g>
          <g>
            <g>
              <path class="cls-6" d="M40.32,353.42c-7.06-.4-15.74,2.42-18.36,10.69-1.01,3.13-4.84,2.82-5.95,9.78-1.11,6.76,1.71,8.37,1.92,10.89s1.41,8.27,6.96,11.4c5.55,3.13,7.67-.2,11.7-.4,4.03-.2,4.94-.61,8.98.5,4.03,1.01,7.16-.4,8.68-2.32s1.51-2.62,3.53-3.93,3.33-4.64,2.72-8.07c-.71-3.43-2.22-4.03-.61-7.46,1.61-3.43-1.51-12.31-5.04-13.52-4.03-1.41-4.54-6.96-14.63-7.57h.1Z"/>
              <path class="cls-7" d="M59.99,385.19c-1.82,1.11-1.71,1.82-3.13,3.43s-4.14,2.93-7.67,2.02-4.34-.61-7.87-.4-5.45,3.03-10.29.3-5.95-7.77-6.15-9.99c-.2-2.22-2.62-3.63-1.71-9.58,1.01-6.15,4.34-5.85,5.25-8.68,1.71-5.35,6.25-8.17,11.1-9.08-6.96-.2-15.03,2.72-17.55,10.69-1.01,3.13-4.84,2.82-5.95,9.78-1.11,6.76,1.71,8.37,1.92,10.89s1.41,8.27,6.96,11.4c5.55,3.13,7.67-.2,11.7-.4,4.03-.2,4.94-.61,8.98.5,4.03,1.01,7.16-.4,8.68-2.32s1.51-2.62,3.53-3.93c1.51-.91,2.52-2.93,2.82-5.25-.2.2-.4.3-.61.4v.2Z"/>
            </g>
            <g>
              <path class="cls-6" d="M50.81,358.16c.2-.91,1.21-1.41,1.21-1.41,0,0,.61.91.4,1.82s-1.21,1.41-1.21,1.41c0,0-.61-.91-.4-1.82Z"/>
              <path class="cls-6" d="M21.76,373.19c.81-.5,1.82-.2,1.82-.2,0,0-.2,1.11-.91,1.51-.81.5-1.82.2-1.82.2,0,0,.2-1.11.91-1.51Z"/>
              <path class="cls-8" d="M50.51,367.94c.5-.71,1.61-.81,1.61-.81,0,0,.2,1.11-.3,1.82-.5.71-1.61.81-1.61.81,0,0-.2-1.11.3-1.82Z"/>
              <path class="cls-8" d="M44.66,362.5c.4.81,0,1.82,0,1.82,0,0-1.11-.2-1.51-1.01s0-1.82,0-1.82c0,0,1.11.2,1.51,1.01Z"/>
              <path class="cls-8" d="M50.51,370.36c.81.4,1.01,1.51,1.01,1.51,0,0-1.01.4-1.82,0s-1.01-1.51-1.01-1.51c0,0,1.01-.4,1.82,0Z"/>
              <path class="cls-7" d="M26.91,384.39c-.4.81-1.41,1.21-1.41,1.21,0,0-.5-1.01-.1-1.82s1.41-1.21,1.41-1.21c0,0,.5,1.01.1,1.82Z"/>
              <path class="cls-7" d="M52.73,390.64c-.61.61-1.71.61-1.71.61,0,0,0-1.11.61-1.71s1.71-.61,1.71-.61c0,0,0,1.11-.61,1.71Z"/>
              <path class="cls-7" d="M49,384.79c-.81-.3-1.31-1.31-1.31-1.31,0,0,.91-.5,1.82-.3s1.31,1.31,1.31,1.31c0,0-.91.5-1.82.3Z"/>
              <path class="cls-7" d="M30.64,378.94c-.81-.4-1.11-1.41-1.11-1.41,0,0,1.01-.4,1.82,0,.81.4,1.11,1.41,1.11,1.41,0,0-1.01.4-1.82,0Z"/>
              <path class="cls-7" d="M28.82,364.82c-.91.2-1.82-.4-1.82-.4,0,0,.5-1.01,1.41-1.21s1.82.4,1.82.4c0,0-.5,1.01-1.41,1.21Z"/>
              <path class="cls-6" d="M59.59,378.94c-.81-.4-1.11-1.51-1.11-1.51,0,0,1.01-.4,1.82,0s1.11,1.51,1.11,1.51c0,0-1.01.4-1.82,0Z"/>
              <path class="cls-6" d="M60.29,376.92c-.5.71-1.61.91-1.61.91,0,0-.3-1.11.2-1.82s1.61-.91,1.61-.91c0,0,.3,1.11-.2,1.82Z"/>
              <path class="cls-7" d="M16.62,382.97c-.81-.4-1.11-1.41-1.11-1.41,0,0,1.01-.4,1.82,0s1.11,1.41,1.11,1.41c0,0-1.01.4-1.82,0Z"/>
              <path class="cls-7" d="M17.63,384.69c-.5.71-1.61.91-1.61.91,0,0-.2-1.11.3-1.82.5-.71,1.61-.91,1.61-.91,0,0,.2,1.11-.3,1.82Z"/>
            </g>
          </g>
          <g>
            <polygon class="cls-5" points="38.81 378.84 38.3 379.44 32.45 373.89 32.76 373.59 38.81 378.84"/>
            <polygon class="cls-5" points="38.2 386.5 39.01 387.41 47.38 379.44 46.98 378.94 38.2 386.5"/>
            <polygon class="cls-5" points="38.61 371.88 39.01 372.38 43.55 368.14 43.35 367.84 38.61 371.88"/>
            <polygon class="cls-5" points="38.91 393.06 38.1 394.07 28.72 385.19 29.23 384.69 38.91 393.06"/>
            <polygon class="cls-5" points="40.02 406.68 37.19 406.68 38.3 366.53 38.91 366.53 40.02 406.68"/>
          </g>
        </g>
        <g>
          <g>
            <g>
              <path class="cls-6" d="M93.28,353.42c-7.06-.4-15.74,2.42-18.36,10.69-1.01,3.13-4.84,2.82-5.95,9.78-1.11,6.76,1.71,8.37,1.92,10.89s1.41,8.27,6.96,11.4c5.55,3.13,7.67-.2,11.7-.4,4.03-.2,4.94-.61,8.98.5,4.03,1.01,7.16-.4,8.68-2.32s1.51-2.62,3.53-3.93,3.33-4.64,2.72-8.07c-.71-3.43-2.22-4.03-.61-7.46s-1.51-12.31-5.04-13.52c-4.03-1.41-4.54-6.96-14.63-7.57h.1Z"/>
              <path class="cls-7" d="M113.05,385.19c-1.82,1.11-1.71,1.82-3.13,3.43s-4.14,2.93-7.67,2.02-4.34-.61-7.87-.4-5.45,3.03-10.29.3c-4.84-2.72-5.95-7.77-6.15-9.99-.2-2.22-2.62-3.63-1.71-9.58,1.01-6.15,4.34-5.85,5.25-8.68,1.71-5.35,6.25-8.17,11.1-9.08-6.96-.2-15.03,2.72-17.55,10.69-1.01,3.13-4.84,2.82-5.95,9.78-1.11,6.76,1.71,8.37,1.92,10.89s1.41,8.27,6.96,11.4c5.55,3.13,7.67-.2,11.7-.4,4.03-.2,4.94-.61,8.98.5,4.03,1.01,7.16-.4,8.68-2.32s1.51-2.62,3.53-3.93c1.51-.91,2.52-2.93,2.82-5.25-.2.2-.4.3-.61.4v.2Z"/>
            </g>
            <g>
              <path class="cls-6" d="M103.87,358.16c.2-.91,1.21-1.41,1.21-1.41,0,0,.61.91.4,1.82s-1.21,1.41-1.21,1.41c0,0-.61-.91-.4-1.82Z"/>
              <path class="cls-6" d="M74.82,373.19c.81-.5,1.82-.2,1.82-.2,0,0-.2,1.11-.91,1.51-.81.5-1.82.2-1.82.2,0,0,.2-1.11.91-1.51Z"/>
              <path class="cls-8" d="M103.47,367.94c.5-.71,1.61-.81,1.61-.81,0,0,.2,1.11-.3,1.82-.5.71-1.61.81-1.61.81,0,0-.2-1.11.3-1.82Z"/>
              <path class="cls-8" d="M97.72,362.5c.4.81,0,1.82,0,1.82,0,0-1.11-.2-1.51-1.01s0-1.82,0-1.82c0,0,1.11.2,1.51,1.01Z"/>
              <path class="cls-8" d="M103.57,370.36c.81.4,1.01,1.51,1.01,1.51,0,0-1.01.4-1.82,0s-1.01-1.51-1.01-1.51c0,0,1.01-.4,1.82,0Z"/>
              <path class="cls-7" d="M79.96,384.39c-.4.81-1.41,1.21-1.41,1.21,0,0-.5-1.01-.1-1.82s1.41-1.21,1.41-1.21c0,0,.5,1.01.1,1.82Z"/>
              <path class="cls-7" d="M105.79,390.64c-.61.61-1.71.61-1.71.61,0,0,0-1.11.61-1.71s1.71-.61,1.71-.61c0,0,0,1.11-.61,1.71Z"/>
              <path class="cls-7" d="M101.96,384.79c-.81-.3-1.31-1.31-1.31-1.31,0,0,.91-.5,1.82-.3s1.31,1.31,1.31,1.31c0,0-.91.5-1.82.3Z"/>
              <path class="cls-7" d="M83.6,378.94c-.81-.4-1.11-1.41-1.11-1.41,0,0,1.01-.4,1.82,0s1.11,1.41,1.11,1.41c0,0-1.01.4-1.82,0Z"/>
              <path class="cls-7" d="M81.88,364.82c-.91.2-1.82-.4-1.82-.4,0,0,.5-1.01,1.41-1.21s1.82.4,1.82.4c0,0-.5,1.01-1.41,1.21Z"/>
              <path class="cls-6" d="M112.65,378.94c-.81-.4-1.11-1.51-1.11-1.51,0,0,1.01-.4,1.82,0s1.11,1.51,1.11,1.51c0,0-1.01.4-1.82,0Z"/>
              <path class="cls-6" d="M113.35,376.92c-.5.71-1.61.91-1.61.91,0,0-.3-1.11.2-1.82s1.61-.91,1.61-.91c0,0,.3,1.11-.2,1.82Z"/>
              <path class="cls-7" d="M69.68,382.97c-.81-.4-1.11-1.41-1.11-1.41,0,0,1.01-.4,1.82,0s1.11,1.41,1.11,1.41c0,0-1.01.4-1.82,0Z"/>
              <path class="cls-7" d="M70.68,384.69c-.5.71-1.61.91-1.61.91,0,0-.2-1.11.3-1.82.5-.71,1.61-.91,1.61-.91,0,0,.2,1.11-.3,1.82Z"/>
            </g>
          </g>
          <g>
            <polygon class="cls-5" points="91.87 378.84 91.36 379.44 85.41 373.89 85.82 373.59 91.87 378.84"/>
            <polygon class="cls-5" points="91.26 386.5 91.97 387.41 100.44 379.44 99.94 378.94 91.26 386.5"/>
            <polygon class="cls-5" points="91.57 371.88 91.97 372.38 96.61 368.14 96.31 367.84 91.57 371.88"/>
            <polygon class="cls-5" points="91.97 393.06 91.16 394.07 81.68 385.19 82.18 384.69 91.97 393.06"/>
            <polygon class="cls-5" points="92.98 406.68 90.25 406.68 91.36 366.53 91.87 366.53 92.98 406.68"/>
          </g>
        </g>
        <g>
          <g>
            <g>
              <path class="cls-6" d="M146.34,353.42c-7.06-.4-15.74,2.42-18.36,10.69-1.01,3.13-4.84,2.82-5.95,9.78-1.11,6.76,1.71,8.37,1.92,10.89s1.41,8.27,6.96,11.4c5.55,3.13,7.67-.2,11.7-.4,4.03-.2,4.94-.61,8.98.5,4.03,1.01,7.16-.4,8.68-2.32s1.51-2.62,3.53-3.93,3.33-4.64,2.72-8.07c-.71-3.43-2.22-4.03-.61-7.46,1.61-3.43-1.51-12.31-5.04-13.52-4.03-1.41-4.54-6.96-14.63-7.57h.1Z"/>
              <path class="cls-7" d="M166.11,385.19c-1.82,1.11-1.71,1.82-3.13,3.43s-4.14,2.93-7.67,2.02-4.34-.61-7.87-.4-5.45,3.03-10.29.3-5.95-7.77-6.15-9.99c-.2-2.22-2.62-3.63-1.71-9.58,1.01-6.15,4.34-5.85,5.25-8.68,1.71-5.35,6.25-8.17,11.1-9.08-6.96-.2-15.03,2.72-17.55,10.69-1.01,3.13-4.84,2.82-5.95,9.78-1.11,6.76,1.71,8.37,1.92,10.89s1.41,8.27,6.96,11.4c5.55,3.13,7.67-.2,11.7-.4,4.03-.2,4.94-.61,8.98.5,4.03,1.01,7.16-.4,8.68-2.32s1.51-2.62,3.53-3.93c1.51-.91,2.52-2.93,2.82-5.25-.2.2-.4.3-.61.4v.2Z"/>
            </g>
            <g>
              <path class="cls-6" d="M156.83,358.16c.2-.91,1.21-1.41,1.21-1.41,0,0,.61.91.4,1.82s-1.21,1.41-1.21,1.41c0,0-.61-.91-.4-1.82Z"/>
              <path class="cls-6" d="M127.88,373.19c.81-.5,1.82-.2,1.82-.2,0,0-.2,1.11-.91,1.51-.81.5-1.82.2-1.82.2,0,0,.2-1.11.91-1.51Z"/>
              <path class="cls-8" d="M156.53,367.94c.5-.71,1.61-.81,1.61-.81,0,0,.2,1.11-.3,1.82-.5.71-1.61.81-1.61.81,0,0-.2-1.11.3-1.82Z"/>
              <path class="cls-8" d="M150.78,362.5c.4.81,0,1.82,0,1.82,0,0-1.11-.2-1.51-1.01s0-1.82,0-1.82c0,0,1.11.2,1.51,1.01Z"/>
              <path class="cls-8" d="M156.53,370.36c.81.4,1.01,1.51,1.01,1.51,0,0-1.01.4-1.82,0s-1.01-1.51-1.01-1.51c0,0,1.01-.4,1.82,0Z"/>
              <path class="cls-7" d="M132.92,384.39c-.4.81-1.41,1.21-1.41,1.21,0,0-.5-1.01-.1-1.82s1.41-1.21,1.41-1.21c0,0,.5,1.01.1,1.82Z"/>
              <path class="cls-7" d="M158.75,390.64c-.61.61-1.71.61-1.71.61,0,0,0-1.11.61-1.71s1.71-.61,1.71-.61c0,0,0,1.11-.61,1.71Z"/>
              <path class="cls-7" d="M155.01,384.79c-.81-.3-1.31-1.31-1.31-1.31,0,0,.91-.5,1.82-.3s1.31,1.31,1.31,1.31c0,0-.91.5-1.82.3Z"/>
              <path class="cls-7" d="M136.66,378.94c-.81-.4-1.11-1.41-1.11-1.41,0,0,1.01-.4,1.82,0s1.11,1.41,1.11,1.41c0,0-1.01.4-1.82,0Z"/>
              <path class="cls-7" d="M134.84,364.82c-.91.2-1.82-.4-1.82-.4,0,0,.5-1.01,1.41-1.21s1.82.4,1.82.4c0,0-.5,1.01-1.41,1.21Z"/>
              <path class="cls-6" d="M165.61,378.94c-.81-.4-1.11-1.51-1.11-1.51,0,0,1.01-.4,1.82,0s1.11,1.51,1.11,1.51c0,0-1.01.4-1.82,0Z"/>
              <path class="cls-6" d="M166.31,376.92c-.5.71-1.61.91-1.61.91,0,0-.3-1.11.2-1.82s1.61-.91,1.61-.91c0,0,.3,1.11-.2,1.82Z"/>
              <path class="cls-7" d="M122.63,382.97c-.81-.4-1.11-1.41-1.11-1.41,0,0,1.01-.4,1.82,0s1.11,1.41,1.11,1.41c0,0-1.01.4-1.82,0Z"/>
              <path class="cls-7" d="M123.64,384.69c-.5.71-1.61.91-1.61.91,0,0-.2-1.11.3-1.82.5-.71,1.61-.91,1.61-.91,0,0,.2,1.11-.3,1.82Z"/>
            </g>
          </g>
          <g>
            <polygon class="cls-5" points="144.93 378.84 144.32 379.44 138.47 373.89 138.77 373.59 144.93 378.84"/>
            <polygon class="cls-5" points="144.22 386.5 145.03 387.41 153.4 379.44 153 378.94 144.22 386.5"/>
            <polygon class="cls-5" points="144.62 371.88 145.03 372.38 149.57 368.14 149.37 367.84 144.62 371.88"/>
            <polygon class="cls-5" points="144.93 393.06 144.12 394.07 134.74 385.19 135.24 384.69 144.93 393.06"/>
            <polygon class="cls-5" points="146.04 406.68 143.21 406.68 144.32 366.53 144.93 366.53 146.04 406.68"/>
          </g>
        </g>
        <g>
          <g>
            <g>
              <path class="cls-6" d="M199.4,353.42c-7.06-.4-15.74,2.42-18.36,10.69-1.01,3.13-4.84,2.82-5.95,9.78-1.11,6.76,1.71,8.37,1.92,10.89s1.41,8.27,6.96,11.4c5.55,3.13,7.67-.2,11.7-.4,4.03-.2,4.94-.61,8.98.5,4.03,1.01,7.16-.4,8.68-2.32s1.51-2.62,3.53-3.93,3.33-4.64,2.72-8.07c-.71-3.43-2.22-4.03-.61-7.46,1.61-3.43-1.51-12.31-5.04-13.52-4.03-1.41-4.54-6.96-14.63-7.57h.1Z"/>
              <path class="cls-7" d="M219.07,385.19c-1.82,1.11-1.71,1.82-3.13,3.43s-4.14,2.93-7.67,2.02-4.34-.61-7.87-.4-5.45,3.03-10.29.3-5.95-7.77-6.15-9.99c-.2-2.22-2.62-3.63-1.71-9.58,1.01-6.15,4.34-5.85,5.25-8.68,1.71-5.35,6.25-8.17,11.1-9.08-6.96-.2-15.03,2.72-17.55,10.69-1.01,3.13-4.84,2.82-5.95,9.78-1.11,6.76,1.71,8.37,1.92,10.89s1.41,8.27,6.96,11.4c5.55,3.13,7.67-.2,11.7-.4,4.03-.2,4.94-.61,8.98.5,4.03,1.01,7.16-.4,8.68-2.32s1.51-2.62,3.53-3.93c1.51-.91,2.52-2.93,2.82-5.25-.2.2-.4.3-.61.4v.2Z"/>
            </g>
            <g>
              <path class="cls-6" d="M209.89,358.16c.2-.91,1.21-1.41,1.21-1.41,0,0,.61.91.4,1.82s-1.21,1.41-1.21,1.41c0,0-.61-.91-.4-1.82Z"/>
              <path class="cls-6" d="M180.84,373.19c.81-.5,1.82-.2,1.82-.2,0,0-.2,1.11-.91,1.51-.81.5-1.82.2-1.82.2,0,0,.2-1.11.91-1.51Z"/>
              <path class="cls-8" d="M209.59,367.94c.5-.71,1.61-.81,1.61-.81,0,0,.2,1.11-.3,1.82-.5.71-1.61.81-1.61.81,0,0-.2-1.11.3-1.82Z"/>
              <path class="cls-8" d="M203.74,362.5c.4.81,0,1.82,0,1.82,0,0-1.11-.2-1.51-1.01s0-1.82,0-1.82c0,0,1.11.2,1.51,1.01Z"/>
              <path class="cls-8" d="M209.59,370.36c.81.4,1.01,1.51,1.01,1.51,0,0-1.01.4-1.82,0s-1.01-1.51-1.01-1.51c0,0,1.01-.4,1.82,0Z"/>
              <path class="cls-7" d="M185.98,384.39c-.4.81-1.41,1.21-1.41,1.21,0,0-.5-1.01-.1-1.82s1.41-1.21,1.41-1.21c0,0,.5,1.01.1,1.82Z"/>
              <path class="cls-7" d="M211.81,390.64c-.61.61-1.71.61-1.71.61,0,0,0-1.11.61-1.71s1.71-.61,1.71-.61c0,0,0,1.11-.61,1.71Z"/>
              <path class="cls-7" d="M208.07,384.79c-.81-.3-1.31-1.31-1.31-1.31,0,0,.91-.5,1.82-.3s1.31,1.31,1.31,1.31c0,0-.91.5-1.82.3Z"/>
              <path class="cls-7" d="M189.72,378.94c-.81-.4-1.11-1.41-1.11-1.41,0,0,1.01-.4,1.82,0s1.11,1.41,1.11,1.41c0,0-1.01.4-1.82,0Z"/>
              <path class="cls-7" d="M187.9,364.82c-.91.2-1.82-.4-1.82-.4,0,0,.5-1.01,1.41-1.21s1.82.4,1.82.4c0,0-.5,1.01-1.41,1.21Z"/>
              <path class="cls-6" d="M218.67,378.94c-.81-.4-1.11-1.51-1.11-1.51,0,0,1.01-.4,1.82,0s1.11,1.51,1.11,1.51c0,0-1.01.4-1.82,0Z"/>
              <path class="cls-6" d="M219.37,376.92c-.5.71-1.61.91-1.61.91,0,0-.3-1.11.2-1.82s1.61-.91,1.61-.91c0,0,.3,1.11-.2,1.82Z"/>
              <path class="cls-7" d="M175.69,382.97c-.81-.4-1.11-1.41-1.11-1.41,0,0,1.01-.4,1.82,0s1.11,1.41,1.11,1.41c0,0-1.01.4-1.82,0Z"/>
              <path class="cls-7" d="M176.7,384.69c-.5.71-1.61.91-1.61.91,0,0-.2-1.11.3-1.82.5-.71,1.61-.91,1.61-.91,0,0,.2,1.11-.3,1.82Z"/>
            </g>
          </g>
          <g>
            <polygon class="cls-5" points="197.89 378.84 197.38 379.44 191.53 373.89 191.83 373.59 197.89 378.84"/>
            <polygon class="cls-5" points="197.28 386.5 198.09 387.41 206.46 379.44 206.06 378.94 197.28 386.5"/>
            <polygon class="cls-5" points="197.68 371.88 198.09 372.38 202.63 368.14 202.32 367.84 197.68 371.88"/>
            <polygon class="cls-5" points="197.99 393.06 197.18 394.07 187.8 385.19 188.3 384.69 197.99 393.06"/>
            <polygon class="cls-5" points="199 406.68 196.27 406.68 197.38 366.53 197.89 366.53 199 406.68"/>
          </g>
        </g>
        <g>
          <g>
            <g>
              <path class="cls-6" d="M252.36,353.42c-7.06-.4-15.74,2.42-18.36,10.69-1.01,3.13-4.84,2.82-5.95,9.78-1.11,6.76,1.71,8.37,1.92,10.89s1.41,8.27,6.96,11.4c5.55,3.13,7.67-.2,11.7-.4,4.03-.2,4.94-.61,8.98.5,4.03,1.01,7.16-.4,8.68-2.32s1.51-2.62,3.53-3.93,3.33-4.64,2.72-8.07c-.71-3.43-2.22-4.03-.61-7.46s-1.51-12.31-5.04-13.52c-4.03-1.41-4.54-6.96-14.63-7.57h.1Z"/>
              <path class="cls-7" d="M272.13,385.19c-1.82,1.11-1.71,1.82-3.13,3.43s-4.14,2.93-7.67,2.02-4.34-.61-7.87-.4c-3.53.2-5.45,3.03-10.29.3s-5.95-7.77-6.15-9.99c-.2-2.22-2.62-3.63-1.71-9.58,1.01-6.15,4.34-5.85,5.25-8.68,1.71-5.35,6.25-8.17,11.1-9.08-6.96-.2-15.03,2.72-17.55,10.69-1.01,3.13-4.84,2.82-5.95,9.78-1.11,6.76,1.71,8.37,1.92,10.89s1.41,8.27,6.96,11.4c5.55,3.13,7.67-.2,11.7-.4,4.03-.2,4.94-.61,8.98.5,4.03,1.01,7.16-.4,8.68-2.32s1.51-2.62,3.53-3.93c1.51-.91,2.52-2.93,2.82-5.25-.2.2-.4.3-.61.4v.2Z"/>
            </g>
            <g>
              <path class="cls-6" d="M262.95,358.16c.2-.91,1.21-1.41,1.21-1.41,0,0,.61.91.4,1.82s-1.21,1.41-1.21,1.41c0,0-.61-.91-.4-1.82Z"/>
              <path class="cls-6" d="M233.9,373.19c.81-.5,1.82-.2,1.82-.2,0,0-.2,1.11-.91,1.51-.81.5-1.82.2-1.82.2,0,0,.2-1.11.91-1.51Z"/>
              <path class="cls-8" d="M262.55,367.94c.5-.71,1.61-.81,1.61-.81,0,0,.2,1.11-.3,1.82-.5.71-1.61.81-1.61.81,0,0-.2-1.11.3-1.82Z"/>
              <path class="cls-8" d="M256.8,362.5c.4.81,0,1.82,0,1.82,0,0-1.11-.2-1.51-1.01s0-1.82,0-1.82c0,0,1.11.2,1.51,1.01Z"/>
              <path class="cls-8" d="M262.65,370.36c.81.4,1.01,1.51,1.01,1.51,0,0-1.01.4-1.82,0s-1.01-1.51-1.01-1.51c0,0,1.01-.4,1.82,0Z"/>
              <path class="cls-7" d="M239.04,384.39c-.4.81-1.41,1.21-1.41,1.21,0,0-.5-1.01-.1-1.82s1.41-1.21,1.41-1.21c0,0,.5,1.01.1,1.82Z"/>
              <path class="cls-7" d="M264.87,390.64c-.61.61-1.71.61-1.71.61,0,0,0-1.11.61-1.71s1.71-.61,1.71-.61c0,0,0,1.11-.61,1.71Z"/>
              <path class="cls-7" d="M261.03,384.79c-.81-.3-1.31-1.31-1.31-1.31,0,0,.91-.5,1.82-.3s1.31,1.31,1.31,1.31c0,0-.91.5-1.82.3Z"/>
              <path class="cls-7" d="M242.67,378.94c-.81-.4-1.11-1.41-1.11-1.41,0,0,1.01-.4,1.82,0s1.11,1.41,1.11,1.41c0,0-1.01.4-1.82,0Z"/>
              <path class="cls-7" d="M240.96,364.82c-.91.2-1.82-.4-1.82-.4,0,0,.5-1.01,1.41-1.21s1.82.4,1.82.4c0,0-.5,1.01-1.41,1.21Z"/>
              <path class="cls-6" d="M271.62,378.94c-.81-.4-1.11-1.51-1.11-1.51,0,0,1.01-.4,1.82,0s1.11,1.51,1.11,1.51c0,0-1.01.4-1.82,0Z"/>
              <path class="cls-6" d="M272.33,376.92c-.5.71-1.61.91-1.61.91,0,0-.3-1.11.2-1.82s1.61-.91,1.61-.91c0,0,.3,1.11-.2,1.82Z"/>
              <path class="cls-7" d="M228.75,382.97c-.81-.4-1.11-1.41-1.11-1.41,0,0,1.01-.4,1.82,0s1.11,1.41,1.11,1.41c0,0-1.01.4-1.82,0Z"/>
              <path class="cls-7" d="M229.76,384.69c-.5.71-1.61.91-1.61.91,0,0-.2-1.11.3-1.82.5-.71,1.61-.91,1.61-.91,0,0,.2,1.11-.3,1.82Z"/>
            </g>
          </g>
          <g>
            <polygon class="cls-5" points="250.95 378.84 250.44 379.44 244.49 373.89 244.79 373.59 250.95 378.84"/>
            <polygon class="cls-5" points="250.34 386.5 251.05 387.41 259.52 379.44 259.02 378.94 250.34 386.5"/>
            <polygon class="cls-5" points="250.64 371.88 251.05 372.38 255.59 368.14 255.38 367.84 250.64 371.88"/>
            <polygon class="cls-5" points="251.05 393.06 250.14 394.07 240.76 385.19 241.26 384.69 251.05 393.06"/>
            <polygon class="cls-5" points="252.05 406.68 249.33 406.68 250.44 366.53 250.95 366.53 252.05 406.68"/>
          </g>
        </g>
        <g>
          <g>
            <g>
              <path class="cls-6" d="M305.42,353.42c-7.06-.4-15.74,2.42-18.36,10.69-1.01,3.13-4.84,2.82-5.95,9.78-1.11,6.76,1.71,8.37,1.92,10.89s1.41,8.27,6.96,11.4c5.55,3.13,7.67-.2,11.7-.4,4.03-.2,4.94-.61,8.98.5,4.03,1.01,7.16-.4,8.68-2.32s1.51-2.62,3.53-3.93,3.33-4.64,2.72-8.07c-.71-3.43-2.22-4.03-.61-7.46s-1.51-12.31-5.04-13.52c-4.03-1.41-4.54-6.96-14.63-7.57h.1Z"/>
              <path class="cls-7" d="M325.19,385.19c-1.82,1.11-1.71,1.82-3.13,3.43s-4.14,2.93-7.67,2.02-4.34-.61-7.87-.4-5.45,3.03-10.29.3c-4.84-2.72-5.95-7.77-6.15-9.99-.2-2.22-2.62-3.63-1.71-9.58,1.01-6.15,4.34-5.85,5.25-8.68,1.71-5.35,6.25-8.17,11.1-9.08-6.96-.2-15.03,2.72-17.55,10.69-1.01,3.13-4.84,2.82-5.95,9.78-1.11,6.76,1.71,8.37,1.92,10.89s1.41,8.27,6.96,11.4c5.55,3.13,7.67-.2,11.7-.4,4.03-.2,4.94-.61,8.98.5,4.03,1.01,7.16-.4,8.68-2.32s1.51-2.62,3.53-3.93c1.51-.91,2.52-2.93,2.82-5.25-.2.2-.4.3-.61.4v.2Z"/>
            </g>
            <g>
              <path class="cls-6" d="M315.91,358.16c.2-.91,1.21-1.41,1.21-1.41,0,0,.61.91.4,1.82s-1.21,1.41-1.21,1.41c0,0-.61-.91-.4-1.82Z"/>
              <path class="cls-6" d="M286.86,373.19c.81-.5,1.82-.2,1.82-.2,0,0-.2,1.11-.91,1.51-.81.5-1.82.2-1.82.2,0,0,.2-1.11.91-1.51Z"/>
              <path class="cls-8" d="M315.61,367.94c.5-.71,1.61-.81,1.61-.81,0,0,.2,1.11-.3,1.82-.5.71-1.61.81-1.61.81,0,0-.2-1.11.3-1.82Z"/>
              <path class="cls-8" d="M309.86,362.5c.4.81,0,1.82,0,1.82,0,0-1.11-.2-1.51-1.01s0-1.82,0-1.82c0,0,1.11.2,1.51,1.01Z"/>
              <path class="cls-8" d="M315.61,370.36c.81.4,1.01,1.51,1.01,1.51,0,0-1.01.4-1.82,0s-1.01-1.51-1.01-1.51c0,0,1.01-.4,1.82,0Z"/>
              <path class="cls-7" d="M292,384.39c-.4.81-1.41,1.21-1.41,1.21,0,0-.5-1.01-.1-1.82s1.41-1.21,1.41-1.21c0,0,.5,1.01.1,1.82Z"/>
              <path class="cls-7" d="M317.82,390.64c-.61.61-1.71.61-1.71.61,0,0,0-1.11.61-1.71s1.71-.61,1.71-.61c0,0,0,1.11-.61,1.71Z"/>
              <path class="cls-7" d="M314.09,384.79c-.81-.3-1.31-1.31-1.31-1.31,0,0,.91-.5,1.82-.3s1.31,1.31,1.31,1.31c0,0-.91.5-1.82.3Z"/>
              <path class="cls-7" d="M295.73,378.94c-.81-.4-1.11-1.41-1.11-1.41,0,0,1.01-.4,1.82,0s1.11,1.41,1.11,1.41c0,0-1.01.4-1.82,0Z"/>
              <path class="cls-7" d="M293.92,364.82c-.91.2-1.82-.4-1.82-.4,0,0,.5-1.01,1.41-1.21s1.82.4,1.82.4c0,0-.5,1.01-1.41,1.21Z"/>
              <path class="cls-6" d="M324.68,378.94c-.81-.4-1.11-1.51-1.11-1.51,0,0,1.01-.4,1.82,0s1.11,1.51,1.11,1.51c0,0-1.01.4-1.82,0Z"/>
              <path class="cls-6" d="M325.39,376.92c-.5.71-1.61.91-1.61.91,0,0-.3-1.11.2-1.82s1.61-.91,1.61-.91c0,0,.3,1.11-.2,1.82Z"/>
              <path class="cls-7" d="M281.71,382.97c-.81-.4-1.11-1.41-1.11-1.41,0,0,1.01-.4,1.82,0s1.11,1.41,1.11,1.41c0,0-1.01.4-1.82,0Z"/>
              <path class="cls-7" d="M282.72,384.69c-.5.71-1.61.91-1.61.91,0,0-.2-1.11.3-1.82.5-.71,1.61-.91,1.61-.91,0,0,.2,1.11-.3,1.82Z"/>
            </g>
          </g>
          <g>
            <polygon class="cls-5" points="303.9 378.84 303.4 379.44 297.55 373.89 297.85 373.59 303.9 378.84"/>
            <polygon class="cls-5" points="303.3 386.5 304.11 387.41 312.48 379.44 312.07 378.94 303.3 386.5"/>
            <polygon class="cls-5" points="303.7 371.88 304.11 372.38 308.64 368.14 308.44 367.84 303.7 371.88"/>
            <polygon class="cls-5" points="304 393.06 303.2 394.07 293.82 385.19 294.32 384.69 304 393.06"/>
            <polygon class="cls-5" points="305.11 406.68 302.29 406.68 303.4 366.53 304 366.53 305.11 406.68"/>
          </g>
        </g>
        <g>
          <g>
            <g>
              <path class="cls-6" d="M358.38,353.42c-7.06-.4-15.74,2.42-18.36,10.69-1.01,3.13-4.84,2.82-5.95,9.78-1.11,6.76,1.71,8.37,1.92,10.89s1.41,8.27,6.96,11.4c5.55,3.13,7.67-.2,11.7-.4,4.03-.2,4.94-.61,8.98.5,4.03,1.01,7.16-.4,8.68-2.32s1.51-2.62,3.53-3.93,3.33-4.64,2.72-8.07c-.71-3.43-2.22-4.03-.61-7.46s-1.51-12.31-5.04-13.52c-4.03-1.41-4.54-6.96-14.63-7.57h.1Z"/>
              <path class="cls-7" d="M378.15,385.19c-1.82,1.11-1.71,1.82-3.13,3.43s-4.14,2.93-7.67,2.02-4.34-.61-7.87-.4-5.45,3.03-10.29.3c-4.84-2.72-5.95-7.77-6.15-9.99-.2-2.22-2.62-3.63-1.71-9.58,1.01-6.15,4.34-5.85,5.25-8.68,1.71-5.35,6.25-8.17,11.1-9.08-6.96-.2-15.03,2.72-17.55,10.69-1.01,3.13-4.84,2.82-5.95,9.78-1.11,6.76,1.71,8.37,1.92,10.89s1.41,8.27,6.96,11.4c5.55,3.13,7.67-.2,11.7-.4,4.03-.2,4.94-.61,8.98.5,4.03,1.01,7.16-.4,8.68-2.32s1.51-2.62,3.53-3.93c1.51-.91,2.52-2.93,2.82-5.25-.2.2-.4.3-.61.4v.2Z"/>
            </g>
            <g>
              <path class="cls-6" d="M368.97,358.16c.2-.91,1.21-1.41,1.21-1.41,0,0,.61.91.4,1.82s-1.21,1.41-1.21,1.41c0,0-.61-.91-.4-1.82Z"/>
              <path class="cls-6" d="M339.92,373.19c.81-.5,1.82-.2,1.82-.2,0,0-.2,1.11-.91,1.51-.81.5-1.82.2-1.82.2,0,0,.2-1.11.91-1.51Z"/>
              <path class="cls-8" d="M368.66,367.94c.5-.71,1.61-.81,1.61-.81,0,0,.2,1.11-.3,1.82-.5.71-1.61.81-1.61.81,0,0-.2-1.11.3-1.82Z"/>
              <path class="cls-8" d="M362.81,362.5c.4.81,0,1.82,0,1.82,0,0-1.11-.2-1.51-1.01s0-1.82,0-1.82c0,0,1.11.2,1.51,1.01Z"/>
              <path class="cls-8" d="M368.66,370.36c.81.4,1.01,1.51,1.01,1.51,0,0-1.01.4-1.82,0s-1.01-1.51-1.01-1.51c0,0,1.01-.4,1.82,0Z"/>
              <path class="cls-7" d="M345.06,384.39c-.4.81-1.41,1.21-1.41,1.21,0,0-.5-1.01-.1-1.82s1.41-1.21,1.41-1.21c0,0,.5,1.01.1,1.82Z"/>
              <path class="cls-7" d="M370.88,390.64c-.61.61-1.71.61-1.71.61,0,0,0-1.11.61-1.71s1.71-.61,1.71-.61c0,0,0,1.11-.61,1.71Z"/>
              <path class="cls-7" d="M367.05,384.79c-.81-.3-1.31-1.31-1.31-1.31,0,0,.91-.5,1.82-.3s1.31,1.31,1.31,1.31c0,0-.91.5-1.82.3Z"/>
              <path class="cls-7" d="M348.69,378.94c-.81-.4-1.11-1.41-1.11-1.41,0,0,1.01-.4,1.82,0s1.11,1.41,1.11,1.41c0,0-1.01.4-1.82,0Z"/>
              <path class="cls-7" d="M346.98,364.82c-.91.2-1.82-.4-1.82-.4,0,0,.5-1.01,1.41-1.21s1.82.4,1.82.4c0,0-.5,1.01-1.41,1.21Z"/>
              <path class="cls-6" d="M377.74,378.94c-.81-.4-1.11-1.51-1.11-1.51,0,0,1.01-.4,1.82,0s1.11,1.51,1.11,1.51c0,0-1.01.4-1.82,0Z"/>
              <path class="cls-6" d="M378.45,376.92c-.5.71-1.61.91-1.61.91,0,0-.3-1.11.2-1.82s1.61-.91,1.61-.91c0,0,.3,1.11-.2,1.82Z"/>
              <path class="cls-7" d="M334.77,382.97c-.81-.4-1.11-1.41-1.11-1.41,0,0,1.01-.4,1.82,0s1.11,1.41,1.11,1.41c0,0-1.01.4-1.82,0Z"/>
              <path class="cls-7" d="M335.78,384.69c-.5.71-1.61.91-1.61.91,0,0-.2-1.11.3-1.82.5-.71,1.61-.91,1.61-.91,0,0,.2,1.11-.3,1.82Z"/>
            </g>
          </g>
          <g>
            <polygon class="cls-5" points="356.96 378.84 356.46 379.44 350.61 373.89 350.91 373.59 356.96 378.84"/>
            <polygon class="cls-5" points="356.36 386.5 357.06 387.41 365.54 379.44 365.03 378.94 356.36 386.5"/>
            <polygon class="cls-5" points="356.76 371.88 357.17 372.38 361.7 368.14 361.4 367.84 356.76 371.88"/>
            <polygon class="cls-5" points="357.06 393.06 356.26 394.07 346.88 385.19 347.28 384.69 357.06 393.06"/>
            <polygon class="cls-5" points="358.07 406.68 355.35 406.68 356.46 366.53 356.96 366.53 358.07 406.68"/>
          </g>
        </g>
        <g>
          <g>
            <g>
              <path class="cls-6" d="M411.43,353.42c-7.06-.4-15.74,2.42-18.36,10.69-1.01,3.13-4.84,2.82-5.95,9.78-1.11,6.76,1.71,8.37,1.92,10.89s1.41,8.27,6.96,11.4c5.55,3.13,7.67-.2,11.7-.4,4.03-.2,4.94-.61,8.98.5,4.03,1.01,7.16-.4,8.68-2.32s1.51-2.62,3.53-3.93,3.33-4.64,2.72-8.07c-.71-3.43-2.22-4.03-.61-7.46s-1.51-12.31-5.04-13.52c-4.03-1.41-4.54-6.96-14.63-7.57h.1Z"/>
              <path class="cls-7" d="M431.21,385.19c-1.82,1.11-1.71,1.82-3.13,3.43s-4.14,2.93-7.67,2.02-4.34-.61-7.87-.4-5.45,3.03-10.29.3c-4.84-2.72-5.95-7.77-6.15-9.99-.2-2.22-2.62-3.63-1.71-9.58,1.01-6.15,4.34-5.85,5.25-8.68,1.71-5.35,6.25-8.17,11.1-9.08-6.96-.2-15.03,2.72-17.55,10.69-1.01,3.13-4.84,2.82-5.95,9.78-1.11,6.76,1.71,8.37,1.92,10.89s1.41,8.27,6.96,11.4c5.55,3.13,7.67-.2,11.7-.4,4.03-.2,4.94-.61,8.98.5,4.03,1.01,7.16-.4,8.68-2.32s1.51-2.62,3.53-3.93c1.51-.91,2.52-2.93,2.82-5.25-.2.2-.4.3-.61.4v.2Z"/>
            </g>
            <g>
              <path class="cls-6" d="M421.93,358.16c.2-.91,1.21-1.41,1.21-1.41,0,0,.61.91.4,1.82s-1.21,1.41-1.21,1.41c0,0-.61-.91-.4-1.82Z"/>
              <path class="cls-6" d="M392.98,373.19c.81-.5,1.82-.2,1.82-.2,0,0-.2,1.11-.91,1.51-.81.5-1.82.2-1.82.2,0,0,.2-1.11.91-1.51Z"/>
              <path class="cls-8" d="M421.62,367.94c.5-.71,1.61-.81,1.61-.81,0,0,.2,1.11-.3,1.82-.5.71-1.61.81-1.61.81,0,0-.2-1.11.3-1.82Z"/>
              <path class="cls-8" d="M415.87,362.5c.4.81,0,1.82,0,1.82,0,0-1.11-.2-1.51-1.01s0-1.82,0-1.82c0,0,1.11.2,1.51,1.01Z"/>
              <path class="cls-8" d="M421.62,370.36c.81.4,1.01,1.51,1.01,1.51,0,0-1.01.4-1.82,0s-1.01-1.51-1.01-1.51c0,0,1.01-.4,1.82,0Z"/>
              <path class="cls-7" d="M398.02,384.39c-.4.81-1.41,1.21-1.41,1.21,0,0-.5-1.01-.1-1.82s1.41-1.21,1.41-1.21c0,0,.5,1.01.1,1.82Z"/>
              <path class="cls-7" d="M423.94,390.64c-.61.61-1.71.61-1.71.61,0,0,0-1.11.61-1.71s1.71-.61,1.71-.61c0,0,0,1.11-.61,1.71Z"/>
              <path class="cls-7" d="M420.11,384.79c-.81-.3-1.31-1.31-1.31-1.31,0,0,.91-.5,1.82-.3s1.31,1.31,1.31,1.31c0,0-.91.5-1.82.3Z"/>
              <path class="cls-7" d="M401.75,378.94c-.81-.4-1.11-1.41-1.11-1.41,0,0,1.01-.4,1.82,0s1.11,1.41,1.11,1.41c0,0-1.01.4-1.82,0Z"/>
              <path class="cls-7" d="M399.94,364.82c-.91.2-1.82-.4-1.82-.4,0,0,.5-1.01,1.41-1.21s1.82.4,1.82.4c0,0-.5,1.01-1.41,1.21Z"/>
              <path class="cls-6" d="M430.7,378.94c-.81-.4-1.11-1.51-1.11-1.51,0,0,1.01-.4,1.82,0s1.11,1.51,1.11,1.51c0,0-1.01.4-1.82,0Z"/>
              <path class="cls-6" d="M431.41,376.92c-.5.71-1.61.91-1.61.91,0,0-.3-1.11.2-1.82s1.61-.91,1.61-.91c0,0,.3,1.11-.2,1.82Z"/>
              <path class="cls-7" d="M387.83,382.97c-.81-.4-1.11-1.41-1.11-1.41,0,0,1.01-.4,1.82,0s1.11,1.41,1.11,1.41c0,0-1.01.4-1.82,0Z"/>
              <path class="cls-7" d="M388.84,384.69c-.5.71-1.61.91-1.61.91,0,0-.2-1.11.3-1.82.5-.71,1.61-.91,1.61-.91,0,0,.2,1.11-.3,1.82Z"/>
            </g>
          </g>
          <g>
            <polygon class="cls-5" points="410.02 378.84 409.42 379.44 403.57 373.89 403.87 373.59 410.02 378.84"/>
            <polygon class="cls-5" points="409.42 386.5 410.12 387.41 418.5 379.44 418.09 378.94 409.42 386.5"/>
            <polygon class="cls-5" points="409.72 371.88 410.12 372.38 414.66 368.14 414.46 367.84 409.72 371.88"/>
            <polygon class="cls-5" points="410.12 393.06 409.22 394.07 399.83 385.19 400.34 384.69 410.12 393.06"/>
            <polygon class="cls-5" points="411.13 406.68 408.31 406.68 409.42 366.53 410.02 366.53 411.13 406.68"/>
          </g>
        </g>
        <g>
          <g>
            <g>
              <path class="cls-6" d="M464.49,353.42c-7.06-.4-15.74,2.42-18.36,10.69-1.01,3.13-4.84,2.82-5.95,9.78-1.11,6.76,1.71,8.37,1.92,10.89s1.41,8.27,6.96,11.4c5.55,3.13,7.67-.2,11.7-.4,4.03-.2,4.94-.61,8.98.5,4.03,1.01,7.16-.4,8.68-2.32s1.51-2.62,3.53-3.93,3.33-4.64,2.72-8.07c-.71-3.43-2.22-4.03-.61-7.46s-1.51-12.31-5.04-13.52c-4.03-1.41-4.54-6.96-14.63-7.57h.1Z"/>
              <path class="cls-7" d="M484.16,385.19c-1.82,1.11-1.71,1.82-3.13,3.43s-4.14,2.93-7.67,2.02-4.34-.61-7.87-.4-5.45,3.03-10.29.3c-4.84-2.72-5.95-7.77-6.15-9.99-.2-2.22-2.62-3.63-1.71-9.58,1.01-6.15,4.34-5.85,5.25-8.68,1.71-5.35,6.25-8.17,11.1-9.08-6.96-.2-15.03,2.72-17.55,10.69-1.01,3.13-4.84,2.82-5.95,9.78-1.11,6.76,1.71,8.37,1.92,10.89s1.41,8.27,6.96,11.4c5.55,3.13,7.67-.2,11.7-.4,4.03-.2,4.94-.61,8.98.5,4.03,1.01,7.16-.4,8.68-2.32s1.51-2.62,3.53-3.93c1.51-.91,2.52-2.93,2.82-5.25-.2.2-.4.3-.61.4v.2Z"/>
            </g>
            <g>
              <path class="cls-6" d="M474.99,358.16c.2-.91,1.21-1.41,1.21-1.41,0,0,.61.91.4,1.82s-1.21,1.41-1.21,1.41c0,0-.61-.91-.4-1.82Z"/>
              <path class="cls-6" d="M445.93,373.19c.81-.5,1.82-.2,1.82-.2,0,0-.2,1.11-.91,1.51-.81.5-1.82.2-1.82.2,0,0,.2-1.11.91-1.51Z"/>
              <path class="cls-8" d="M474.68,367.94c.5-.71,1.61-.81,1.61-.81,0,0,.2,1.11-.3,1.82-.5.71-1.61.81-1.61.81,0,0-.2-1.11.3-1.82Z"/>
              <path class="cls-8" d="M468.83,362.5c.4.81,0,1.82,0,1.82,0,0-1.11-.2-1.51-1.01s0-1.82,0-1.82c0,0,1.11.2,1.51,1.01Z"/>
              <path class="cls-8" d="M474.68,370.36c.81.4,1.01,1.51,1.01,1.51,0,0-1.01.4-1.82,0s-1.01-1.51-1.01-1.51c0,0,1.01-.4,1.82,0Z"/>
              <path class="cls-7" d="M451.08,384.39c-.4.81-1.41,1.21-1.41,1.21,0,0-.5-1.01-.1-1.82s1.41-1.21,1.41-1.21c0,0,.5,1.01.1,1.82Z"/>
              <path class="cls-7" d="M476.9,390.64c-.61.61-1.71.61-1.71.61,0,0,0-1.11.61-1.71s1.71-.61,1.71-.61c0,0,0,1.11-.61,1.71Z"/>
              <path class="cls-7" d="M473.17,384.79c-.81-.3-1.31-1.31-1.31-1.31,0,0,.91-.5,1.82-.3s1.31,1.31,1.31,1.31c0,0-.91.5-1.82.3Z"/>
              <path class="cls-7" d="M454.81,378.94c-.81-.4-1.11-1.41-1.11-1.41,0,0,1.01-.4,1.82,0s1.11,1.41,1.11,1.41c0,0-1.01.4-1.82,0Z"/>
              <path class="cls-7" d="M452.99,364.82c-.91.2-1.82-.4-1.82-.4,0,0,.5-1.01,1.41-1.21s1.82.4,1.82.4c0,0-.5,1.01-1.41,1.21Z"/>
              <path class="cls-6" d="M483.76,378.94c-.81-.4-1.11-1.51-1.11-1.51,0,0,1.01-.4,1.82,0s1.11,1.51,1.11,1.51c0,0-1.01.4-1.82,0Z"/>
              <path class="cls-6" d="M484.47,376.92c-.5.71-1.61.91-1.61.91,0,0-.3-1.11.2-1.82s1.61-.91,1.61-.91c0,0,.3,1.11-.2,1.82Z"/>
              <path class="cls-7" d="M440.79,382.97c-.81-.4-1.11-1.41-1.11-1.41,0,0,1.01-.4,1.82,0s1.11,1.41,1.11,1.41c0,0-1.01.4-1.82,0Z"/>
              <path class="cls-7" d="M441.8,384.69c-.5.71-1.61.91-1.61.91,0,0-.2-1.11.3-1.82.5-.71,1.61-.91,1.61-.91,0,0,.2,1.11-.3,1.82Z"/>
            </g>
          </g>
          <g>
            <polygon class="cls-5" points="462.98 378.84 462.48 379.44 456.63 373.89 456.93 373.59 462.98 378.84"/>
            <polygon class="cls-5" points="462.38 386.5 463.18 387.41 471.56 379.44 471.15 378.94 462.38 386.5"/>
            <polygon class="cls-5" points="462.78 371.88 463.18 372.38 467.72 368.14 467.52 367.84 462.78 371.88"/>
            <polygon class="cls-5" points="463.08 393.06 462.28 394.07 452.89 385.19 453.4 384.69 463.08 393.06"/>
            <polygon class="cls-5" points="464.19 406.68 461.37 406.68 462.48 366.53 463.08 366.53 464.19 406.68"/>
          </g>
        </g>
        <polygon class="cls-6" points="50.71 404.46 49.91 404.46 50.5 403.87 50.71 404.46"/>
        <polygon class="cls-6" points="78.31 404.46 77.51 404.46 78.09 403.87 78.31 404.46"/>
        <polygon class="cls-6" points="120.29 404.46 119.49 404.46 120.07 403.87 120.29 404.46"/>
        <polygon class="cls-6" points="129.15 403.63 129.15 404.46 127.94 404.46 129.15 403.63"/>
        <polygon class="cls-6" points="262.17 403.93 262.17 404.46 261.28 404.46 262.17 403.93"/>
        <polygon class="cls-6" points="262.17 403.93 262.17 404.46 261.28 404.46 262.17 403.93"/>
        <polygon class="cls-6" points="289.77 403.37 289.77 404.46 288.51 404.46 289.77 403.37"/>
        <polygon class="cls-6" points="289.77 403.92 289.77 404.46 288.87 404.46 289.77 403.92"/>
        <polygon class="cls-6" points="330.99 404.38 330.99 404.46 330.86 404.46 330.99 404.38"/>
        <polygon class="cls-6" points="330.99 404.38 330.99 404.46 330.86 404.46 330.99 404.38"/>
        <polygon class="cls-6" points="370.13 404.46 369.33 404.46 369.92 403.87 370.13 404.46"/>
        <polygon class="cls-6" points="372.97 403.92 372.97 404.46 372.07 404.46 372.97 403.92"/>
        <polygon class="cls-6" points="372.97 403.92 372.97 404.46 372.07 404.46 372.97 403.92"/>
        <polygon class="cls-6" points="434.72 403.63 434.72 404.46 433.51 404.46 434.72 403.63"/>
        <polygon class="cls-6" points="456.12 403.37 456.12 403.92 455.22 404.46 454.85 404.46 456.12 403.37"/>
        <polygon class="cls-6" points="466.36 404.46 465.56 404.46 466.15 403.87 466.36 404.46"/>
        <polygon class="cls-6" points="481.41 404.46 480.61 404.46 481.2 403.87 481.41 404.46"/>
        <polygon class="cls-6" points="502.73 403.37 502.73 503.11 -1.64 503.11 -1.64 404.46 2.06 402.27 1.43 403.8 3.58 402.58 3.01 403.74 4.79 402.73 4.07 404.46 5.28 403.63 5.28 404.46 7.17 402.83 6.86 404.46 8.7 403.37 8.7 404.46 9.28 403.87 9.49 404.46 11.07 403.37 11.07 404.46 12.34 403.37 12.34 403.92 15.14 402.27 14.52 403.8 16.67 402.58 16.09 403.74 17.89 402.73 17.15 404.46 18.36 403.63 18.36 404.46 20.26 402.83 19.95 404.46 21.78 403.37 21.78 404.46 22.37 403.87 22.58 404.46 24.15 403.37 24.15 404.46 25.42 403.37 25.42 404.46 26.49 404.46 30.18 402.27 29.56 403.8 31.72 402.58 31.14 403.74 32.93 402.73 32.2 404.46 33.4 403.63 33.4 404.46 35.3 402.83 35 404.46 36.83 403.37 36.83 404.46 37.42 403.87 37.63 404.46 39.2 403.37 39.2 404.46 40.46 403.37 40.46 403.93 43.27 402.27 42.64 403.8 44.8 402.58 44.23 403.74 46.01 402.73 45.28 404.46 46.5 403.63 46.5 404.46 48.38 402.83 48.08 404.46 49.91 403.37 49.91 404.46 50.71 404.46 52.29 403.37 52.29 404.46 53.55 403.37 53.55 404.46 54.08 404.46 57.78 402.27 57.16 403.8 59.31 402.58 58.74 403.74 60.53 402.73 59.79 404.46 61 403.63 61 404.46 62.9 402.83 62.58 404.46 64.43 403.37 64.43 404.46 65.01 403.87 65.23 404.46 66.8 403.37 66.8 404.46 68.06 403.37 68.06 403.92 70.87 402.27 70.24 403.8 72.4 402.58 71.82 403.74 73.61 402.73 72.87 404.46 74.08 403.63 74.08 404.46 75.98 402.83 75.67 404.46 77.51 403.37 77.51 404.46 78.31 404.46 79.88 403.37 79.88 404.46 81.15 403.37 81.15 404.46 82.21 404.46 85.91 402.27 85.28 403.8 87.44 402.58 86.86 403.74 88.65 402.73 87.92 404.46 89.13 403.63 89.13 404.46 91.02 402.83 90.72 404.46 92.55 403.37 92.55 404.46 93.14 403.87 93.35 404.46 94.92 403.37 94.92 404.46 96.2 403.37 96.2 403.92 98.99 402.27 98.36 403.8 100.52 402.58 99.95 403.74 101.73 402.73 101.01 404.46 102.22 403.63 102.22 404.46 104.1 402.83 103.8 404.46 105.64 403.37 105.64 404.46 106.22 403.87 106.43 404.46 108.01 403.37 108.01 404.46 109.28 403.37 109.28 404.38 112.85 402.27 112.22 403.8 114.37 402.58 113.8 403.74 115.59 402.73 114.86 404.46 116.07 403.63 116.07 404.46 117.96 402.83 117.65 404.46 119.49 403.37 119.49 404.46 120.29 404.46 121.87 403.37 121.87 404.46 123.13 403.37 123.13 403.92 125.93 402.27 125.31 403.8 127.47 402.58 126.89 403.74 128.68 402.73 127.94 404.46 129.15 404.46 131.05 402.83 130.73 404.46 132.58 403.37 132.58 404.46 133.16 403.87 133.38 404.46 134.95 403.37 134.95 404.46 136.21 403.37 136.21 404.46 137.28 404.46 140.97 402.27 140.35 403.8 142.51 402.58 141.93 403.74 143.72 402.73 142.99 404.46 144.2 403.63 144.2 404.46 146.09 402.83 145.78 404.46 147.62 403.37 147.62 404.46 148.21 403.87 148.42 404.46 149.99 403.37 149.99 404.46 151.26 403.37 151.26 403.92 154.06 402.27 153.43 403.8 155.59 402.58 155.01 403.74 156.8 402.73 156.07 404.46 157.28 403.63 157.28 404.46 159.17 402.83 158.87 404.46 160.7 403.37 160.7 404.46 161.29 403.87 161.5 404.46 163.07 403.37 163.07 404.46 164.35 403.37 164.35 404.46 164.87 404.46 168.57 402.27 167.95 403.8 170.11 402.58 169.53 403.74 171.32 402.73 170.58 404.46 171.79 403.63 171.79 404.46 173.69 402.83 173.37 404.46 175.22 403.37 175.22 404.46 175.8 403.87 176.02 404.46 177.59 403.37 177.59 404.46 178.85 403.37 178.85 403.93 181.66 402.27 181.03 403.8 183.19 402.58 182.61 403.74 184.4 402.73 183.67 404.46 184.87 403.63 184.87 404.46 186.77 402.83 186.47 404.46 188.3 403.37 188.3 404.46 188.89 403.87 189.1 404.46 190.67 403.37 190.67 404.46 191.93 403.37 191.93 404.46 193 404.46 196.71 402.27 196.08 403.8 198.23 402.58 197.65 403.74 199.44 402.73 198.71 404.46 199.92 403.63 199.92 404.46 201.82 402.83 201.51 404.46 203.34 403.37 203.34 404.46 203.93 403.87 204.14 404.46 205.71 403.37 205.71 404.46 206.98 403.37 206.98 403.92 209.79 402.27 209.16 403.8 211.31 402.58 210.74 403.74 212.53 402.73 211.8 404.46 213.01 403.63 213.01 404.46 214.9 402.83 214.59 404.46 216.43 403.37 216.43 404.46 217.01 403.87 217.22 404.46 218.81 403.37 218.81 404.46 220.07 403.37 220.07 404.46 223.77 402.27 223.14 403.8 225.29 402.58 224.72 403.74 226.5 402.73 225.78 404.46 226.99 403.63 226.99 404.46 228.88 402.83 228.57 404.46 230.41 403.37 230.41 404.46 230.99 403.87 231.2 404.46 232.78 403.37 232.78 404.46 234.05 403.37 234.05 403.92 236.85 402.27 236.23 403.8 238.38 402.58 237.8 403.74 239.59 402.73 238.86 404.46 240.07 403.63 240.07 404.46 241.97 402.83 241.65 404.46 243.49 403.37 243.49 404.46 244.08 403.87 244.29 404.46 245.86 403.37 245.86 404.46 247.13 403.37 247.13 404.46 248.19 404.46 251.89 402.27 251.27 403.8 253.43 402.58 252.85 403.74 254.64 402.73 253.9 404.46 255.11 403.63 255.11 404.46 257.01 402.83 256.7 404.46 258.54 403.37 258.54 404.46 259.13 403.87 259.34 404.46 260.91 403.37 260.91 404.46 262.17 403.37 262.17 403.93 261.28 404.46 262.17 404.46 262.17 403.93 264.98 402.27 264.35 403.8 266.51 402.58 265.94 403.74 267.72 402.73 266.99 404.46 268.19 403.63 268.19 404.46 270.09 402.83 269.79 404.46 271.62 403.37 271.62 404.46 272.21 403.87 272.42 404.46 273.99 403.37 273.99 404.46 275.26 403.37 275.26 404.46 275.79 404.46 279.49 402.27 278.87 403.8 281.02 402.58 280.44 403.74 282.24 402.73 281.5 404.46 282.71 403.63 282.71 404.46 284.61 402.83 284.29 404.46 286.13 403.37 286.13 404.46 286.72 403.87 286.94 404.46 288.51 403.37 288.51 404.46 289.77 404.46 289.77 403.92 292.58 402.27 291.95 403.8 294.11 402.58 293.53 403.74 295.32 402.73 294.58 404.46 295.79 403.63 295.79 404.46 297.69 402.83 297.38 404.46 299.22 403.37 299.22 404.46 299.8 403.87 300.02 404.46 301.59 403.37 301.59 404.46 302.85 403.37 302.85 404.46 303.92 404.46 307.62 402.27 306.99 403.8 309.15 402.58 308.57 403.74 310.36 402.73 309.63 404.46 310.84 403.63 310.84 404.46 312.73 402.83 312.43 404.46 314.26 403.37 314.26 404.46 314.85 403.87 315.06 404.46 316.63 403.37 316.63 404.46 317.91 403.37 317.91 403.92 320.7 402.27 320.07 403.8 322.23 402.58 321.66 403.74 323.44 402.73 322.72 404.46 323.93 403.63 323.93 404.46 325.81 402.83 325.51 404.46 327.35 403.37 327.35 404.46 327.93 403.87 328.14 404.46 329.72 403.37 329.72 404.46 330.99 403.37 330.99 404.38 330.86 404.46 330.99 404.46 330.99 404.38 334.56 402.27 333.93 403.8 336.08 402.58 335.51 403.74 337.3 402.73 336.57 404.46 337.78 403.63 337.78 404.46 339.67 402.83 339.36 404.46 341.2 403.37 341.2 404.46 341.78 403.87 341.99 404.46 343.58 403.37 343.58 404.46 344.84 403.37 344.84 403.92 347.64 402.27 347.02 403.8 349.17 402.58 348.6 403.74 350.39 402.73 349.65 404.46 350.86 403.63 350.86 404.46 352.76 402.83 352.44 404.46 354.29 403.37 354.29 404.46 354.87 403.87 355.09 404.46 356.66 403.37 356.66 404.46 357.92 403.37 357.92 404.46 358.99 404.46 362.68 402.27 362.06 403.8 364.22 402.58 363.64 403.74 365.43 402.73 364.7 404.46 365.91 403.63 365.91 404.46 367.8 402.83 367.49 404.46 369.33 403.37 369.33 404.46 370.13 404.46 371.7 403.37 371.7 404.46 372.97 403.37 372.97 403.92 372.07 404.46 372.97 404.46 372.97 403.92 375.77 402.27 375.14 403.8 377.3 402.58 376.72 403.74 378.51 402.73 377.78 404.46 378.99 403.63 378.99 404.46 380.88 402.83 380.58 404.46 382.41 403.37 382.41 404.46 383 403.87 383.21 404.46 384.78 403.37 384.78 404.46 386.06 403.37 386.06 404.46 386.58 404.46 390.28 402.27 389.66 403.8 391.82 402.58 391.24 403.74 393.03 402.73 392.29 404.46 393.5 403.63 393.5 404.46 395.4 402.83 395.08 404.46 396.93 403.37 396.93 404.46 397.5 403.87 397.73 404.46 399.3 403.37 399.3 404.46 400.56 403.37 400.56 403.92 403.37 402.27 402.74 403.8 404.9 402.58 404.32 403.74 406.11 402.73 405.38 404.46 406.58 403.63 406.58 404.46 408.48 402.83 408.17 404.46 410.01 403.37 410.01 404.46 410.6 403.87 410.81 404.46 412.38 403.37 412.38 404.46 413.64 403.37 413.64 404.46 414.71 404.46 418.42 402.27 417.79 403.8 419.94 402.58 419.36 403.74 421.15 402.73 420.42 404.46 421.63 403.63 421.63 404.46 423.53 402.83 423.22 404.46 425.05 403.37 425.05 404.46 425.64 403.87 425.85 404.46 427.42 403.37 427.42 404.46 428.69 403.37 428.69 403.92 431.5 402.27 430.87 403.8 433.02 402.58 432.45 403.74 434.23 402.73 433.51 404.46 434.72 404.46 436.61 402.83 436.3 404.46 438.14 403.37 438.14 404.46 438.72 403.87 438.93 404.46 440.51 403.37 440.51 404.46 441.78 403.37 441.78 404.46 442.14 404.46 445.84 402.27 445.22 403.8 447.37 402.58 446.79 403.74 448.58 402.73 447.85 404.46 449.06 403.63 449.06 404.46 450.96 402.83 450.64 404.46 452.48 403.37 452.48 404.46 453.07 403.87 453.28 404.46 454.85 403.37 454.85 404.46 455.22 404.46 456.12 403.92 458.93 402.27 458.3 403.8 460.45 402.58 459.87 403.74 461.66 402.73 460.93 404.46 462.14 403.63 462.14 404.46 464.04 402.83 463.73 404.46 465.56 403.37 465.56 404.46 466.36 404.46 467.93 403.37 467.93 404.46 469.21 403.37 469.21 404.46 470.26 404.46 473.97 402.27 473.34 403.8 475.5 402.58 474.92 403.74 476.71 402.73 475.97 404.46 477.18 403.63 477.18 404.46 479.08 402.83 478.77 404.46 480.61 403.37 480.61 404.46 481.41 404.46 482.98 403.37 482.98 404.46 484.25 403.37 484.25 404.08 488.48 402.27 487.61 403.8 490.6 402.58 489.8 403.74 492.27 402.73 491.27 404.46 492.94 403.63 492.94 404.46 495.56 402.83 495.14 404.46 497.68 403.37 497.68 404.46 498.49 403.87 498.79 404.46 500.97 403.37 500.97 404.46 502.73 403.37"/>
        <polygon class="cls-1" points="502.73 421.22 502.73 520.96 -1.64 520.96 -1.64 422.31 2.06 420.12 1.43 421.65 3.58 420.43 3.01 421.59 4.79 420.58 4.07 422.31 5.28 421.48 5.28 422.31 7.17 420.68 6.86 422.31 8.7 421.22 8.7 422.31 9.28 421.72 9.49 422.31 11.07 421.22 11.07 422.31 12.34 421.22 12.34 421.77 15.14 420.12 14.52 421.65 16.67 420.43 16.09 421.59 17.89 420.58 17.15 422.31 18.36 421.48 18.36 422.31 20.26 420.68 19.95 422.31 21.78 421.22 21.78 422.31 22.37 421.72 22.58 422.31 24.15 421.22 24.15 422.31 25.42 421.22 25.42 422.31 26.49 422.31 30.18 420.12 29.56 421.65 31.72 420.43 31.14 421.59 32.93 420.58 32.2 422.31 33.4 421.48 33.4 422.31 35.3 420.68 35 422.31 36.83 421.22 36.83 422.31 37.42 421.72 37.63 422.31 39.2 421.22 39.2 422.31 40.46 421.22 40.46 421.78 43.27 420.12 42.64 421.65 44.8 420.43 44.23 421.59 46.01 420.58 45.28 422.31 46.5 421.48 46.5 422.31 48.38 420.68 48.08 422.31 49.91 421.22 49.91 422.31 50.71 422.31 52.29 421.22 52.29 422.31 53.55 421.22 53.55 422.31 54.08 422.31 57.78 420.12 57.16 421.65 59.31 420.43 58.74 421.59 60.53 420.58 59.79 422.31 61 421.48 61 422.31 62.9 420.68 62.58 422.31 64.43 421.22 64.43 422.31 65.01 421.72 65.23 422.31 66.8 421.22 66.8 422.31 68.06 421.22 68.06 421.77 70.87 420.12 70.24 421.65 72.4 420.43 71.82 421.59 73.61 420.58 72.87 422.31 74.08 421.48 74.08 422.31 75.98 420.68 75.67 422.31 77.51 421.22 77.51 422.31 78.31 422.31 79.88 421.22 79.88 422.31 81.15 421.22 81.15 422.31 82.21 422.31 85.91 420.12 85.28 421.65 87.44 420.43 86.86 421.59 88.65 420.58 87.92 422.31 89.13 421.48 89.13 422.31 91.02 420.68 90.72 422.31 92.55 421.22 92.55 422.31 93.14 421.72 93.35 422.31 94.92 421.22 94.92 422.31 96.2 421.22 96.2 421.77 98.99 420.12 98.36 421.65 100.52 420.43 99.95 421.59 101.73 420.58 101.01 422.31 102.22 421.48 102.22 422.31 104.1 420.68 103.8 422.31 105.64 421.22 105.64 422.31 106.22 421.72 106.43 422.31 108.01 421.22 108.01 422.31 109.28 421.22 109.28 422.23 112.85 420.12 112.22 421.65 114.37 420.43 113.8 421.59 115.59 420.58 114.86 422.31 116.07 421.48 116.07 422.31 117.96 420.68 117.65 422.31 119.49 421.22 119.49 422.31 120.29 422.31 121.87 421.22 121.87 422.31 123.13 421.22 123.13 421.77 125.93 420.12 125.31 421.65 127.47 420.43 126.89 421.59 128.68 420.58 127.94 422.31 129.15 422.31 131.05 420.68 130.73 422.31 132.58 421.22 132.58 422.31 133.16 421.72 133.38 422.31 134.95 421.22 134.95 422.31 136.21 421.22 136.21 422.31 137.28 422.31 140.97 420.12 140.35 421.65 142.51 420.43 141.93 421.59 143.72 420.58 142.99 422.31 144.2 421.48 144.2 422.31 146.09 420.68 145.78 422.31 147.62 421.22 147.62 422.31 148.21 421.72 148.42 422.31 149.99 421.22 149.99 422.31 151.26 421.22 151.26 421.77 154.06 420.12 153.43 421.65 155.59 420.43 155.01 421.59 156.8 420.58 156.07 422.31 157.28 421.48 157.28 422.31 159.17 420.68 158.87 422.31 160.7 421.22 160.7 422.31 161.29 421.72 161.5 422.31 163.07 421.22 163.07 422.31 164.35 421.22 164.35 422.31 164.87 422.31 168.57 420.12 167.95 421.65 170.11 420.43 169.53 421.59 171.32 420.58 170.58 422.31 171.79 421.48 171.79 422.31 173.69 420.68 173.37 422.31 175.22 421.22 175.22 422.31 175.8 421.72 176.02 422.31 177.59 421.22 177.59 422.31 178.85 421.22 178.85 421.78 181.66 420.12 181.03 421.65 183.19 420.43 182.61 421.59 184.4 420.58 183.67 422.31 184.87 421.48 184.87 422.31 186.77 420.68 186.47 422.31 188.3 421.22 188.3 422.31 188.89 421.72 189.1 422.31 190.67 421.22 190.67 422.31 191.93 421.22 191.93 422.31 193 422.31 196.71 420.12 196.08 421.65 198.23 420.43 197.65 421.59 199.44 420.58 198.71 422.31 199.92 421.48 199.92 422.31 201.82 420.68 201.51 422.31 203.34 421.22 203.34 422.31 203.93 421.72 204.14 422.31 205.71 421.22 205.71 422.31 206.98 421.22 206.98 421.77 209.79 420.12 209.16 421.65 211.31 420.43 210.74 421.59 212.53 420.58 211.8 422.31 213.01 421.48 213.01 422.31 214.9 420.68 214.59 422.31 216.43 421.22 216.43 422.31 217.01 421.72 217.22 422.31 218.81 421.22 218.81 422.31 220.07 421.22 220.07 422.31 223.77 420.12 223.14 421.65 225.29 420.43 224.72 421.59 226.5 420.58 225.78 422.31 226.99 421.48 226.99 422.31 228.88 420.68 228.57 422.31 230.41 421.22 230.41 422.31 230.99 421.72 231.2 422.31 232.78 421.22 232.78 422.31 234.05 421.22 234.05 421.77 236.85 420.12 236.23 421.65 238.38 420.43 237.8 421.59 239.59 420.58 238.86 422.31 240.07 421.48 240.07 422.31 241.97 420.68 241.65 422.31 243.49 421.22 243.49 422.31 244.08 421.72 244.29 422.31 245.86 421.22 245.86 422.31 247.13 421.22 247.13 422.31 248.19 422.31 251.89 420.12 251.27 421.65 253.43 420.43 252.85 421.59 254.64 420.58 253.9 422.31 255.11 421.48 255.11 422.31 257.01 420.68 256.7 422.31 258.54 421.22 258.54 422.31 259.13 421.72 259.34 422.31 260.91 421.22 260.91 422.31 262.17 421.22 262.17 421.78 261.28 422.31 262.17 422.31 262.17 421.78 264.98 420.12 264.35 421.65 266.51 420.43 265.94 421.59 267.72 420.58 266.99 422.31 268.19 421.48 268.19 422.31 270.09 420.68 269.79 422.31 271.62 421.22 271.62 422.31 272.21 421.72 272.42 422.31 273.99 421.22 273.99 422.31 275.26 421.22 275.26 422.31 275.79 422.31 279.49 420.12 278.87 421.65 281.02 420.43 280.44 421.59 282.24 420.58 281.5 422.31 282.71 421.48 282.71 422.31 284.61 420.68 284.29 422.31 286.13 421.22 286.13 422.31 286.72 421.72 286.94 422.31 288.51 421.22 288.51 422.31 289.77 422.31 289.77 421.77 292.58 420.12 291.95 421.65 294.11 420.43 293.53 421.59 295.32 420.58 294.58 422.31 295.79 421.48 295.79 422.31 297.69 420.68 297.38 422.31 299.22 421.22 299.22 422.31 299.8 421.72 300.02 422.31 301.59 421.22 301.59 422.31 302.85 421.22 302.85 422.31 303.92 422.31 307.62 420.12 306.99 421.65 309.15 420.43 308.57 421.59 310.36 420.58 309.63 422.31 310.84 421.48 310.84 422.31 312.73 420.68 312.43 422.31 314.26 421.22 314.26 422.31 314.85 421.72 315.06 422.31 316.63 421.22 316.63 422.31 317.91 421.22 317.91 421.77 320.7 420.12 320.07 421.65 322.23 420.43 321.66 421.59 323.44 420.58 322.72 422.31 323.93 421.48 323.93 422.31 325.81 420.68 325.51 422.31 327.35 421.22 327.35 422.31 327.93 421.72 328.14 422.31 329.72 421.22 329.72 422.31 330.99 421.22 330.99 422.23 330.86 422.31 330.99 422.31 330.99 422.23 334.56 420.12 333.93 421.65 336.08 420.43 335.51 421.59 337.3 420.58 336.57 422.31 337.78 421.48 337.78 422.31 339.67 420.68 339.36 422.31 341.2 421.22 341.2 422.31 341.78 421.72 341.99 422.31 343.58 421.22 343.58 422.31 344.84 421.22 344.84 421.77 347.64 420.12 347.02 421.65 349.17 420.43 348.6 421.59 350.39 420.58 349.65 422.31 350.86 421.48 350.86 422.31 352.76 420.68 352.44 422.31 354.29 421.22 354.29 422.31 354.87 421.72 355.09 422.31 356.66 421.22 356.66 422.31 357.92 421.22 357.92 422.31 358.99 422.31 362.68 420.12 362.06 421.65 364.22 420.43 363.64 421.59 365.43 420.58 364.7 422.31 365.91 421.48 365.91 422.31 367.8 420.68 367.49 422.31 369.33 421.22 369.33 422.31 370.13 422.31 371.7 421.22 371.7 422.31 372.97 421.22 372.97 421.77 372.07 422.31 372.97 422.31 372.97 421.77 375.77 420.12 375.14 421.65 377.3 420.43 376.72 421.59 378.51 420.58 377.78 422.31 378.99 421.48 378.99 422.31 380.88 420.68 380.58 422.31 382.41 421.22 382.41 422.31 383 421.72 383.21 422.31 384.78 421.22 384.78 422.31 386.06 421.22 386.06 422.31 386.58 422.31 390.28 420.12 389.66 421.65 391.82 420.43 391.24 421.59 393.03 420.58 392.29 422.31 393.5 421.48 393.5 422.31 395.4 420.68 395.08 422.31 396.93 421.22 396.93 422.31 397.5 421.72 397.73 422.31 399.3 421.22 399.3 422.31 400.56 421.22 400.56 421.77 403.37 420.12 402.74 421.65 404.9 420.43 404.32 421.59 406.11 420.58 405.38 422.31 406.58 421.48 406.58 422.31 408.48 420.68 408.17 422.31 410.01 421.22 410.01 422.31 410.6 421.72 410.81 422.31 412.38 421.22 412.38 422.31 413.64 421.22 413.64 422.31 414.71 422.31 418.42 420.12 417.79 421.65 419.94 420.43 419.36 421.59 421.15 420.58 420.42 422.31 421.63 421.48 421.63 422.31 423.53 420.68 423.22 422.31 425.05 421.22 425.05 422.31 425.64 421.72 425.85 422.31 427.42 421.22 427.42 422.31 428.69 421.22 428.69 421.77 431.5 420.12 430.87 421.65 433.02 420.43 432.45 421.59 434.23 420.58 433.51 422.31 434.72 422.31 436.61 420.68 436.3 422.31 438.14 421.22 438.14 422.31 438.72 421.72 438.93 422.31 440.51 421.22 440.51 422.31 441.78 421.22 441.78 422.31 442.14 422.31 445.84 420.12 445.22 421.65 447.37 420.43 446.79 421.59 448.58 420.58 447.85 422.31 449.06 421.48 449.06 422.31 450.96 420.68 450.64 422.31 452.48 421.22 452.48 422.31 453.07 421.72 453.28 422.31 454.85 421.22 454.85 422.31 455.22 422.31 456.12 421.77 458.93 420.12 458.3 421.65 460.45 420.43 459.87 421.59 461.66 420.58 460.93 422.31 462.14 421.48 462.14 422.31 464.04 420.68 463.73 422.31 465.56 421.22 465.56 422.31 466.36 422.31 467.93 421.22 467.93 422.31 469.21 421.22 469.21 422.31 470.26 422.31 473.97 420.12 473.34 421.65 475.5 420.43 474.92 421.59 476.71 420.58 475.97 422.31 477.18 421.48 477.18 422.31 479.08 420.68 478.77 422.31 480.61 421.22 480.61 422.31 481.41 422.31 482.98 421.22 482.98 422.31 484.25 421.22 484.25 421.93 488.48 420.12 487.61 421.65 490.6 420.43 489.8 421.59 492.27 420.58 491.27 422.31 492.94 421.48 492.94 422.31 495.56 420.68 495.14 422.31 497.68 421.22 497.68 422.31 498.49 421.72 498.79 422.31 500.97 421.22 500.97 422.31 502.73 421.22"/>
        <polygon class="cls-6" points="505.3 446.96 505.3 546.7 .93 546.7 .93 448.04 4.63 445.86 4.01 447.39 6.16 446.17 5.58 447.33 7.37 446.32 6.64 448.04 7.85 447.22 7.85 448.04 9.75 446.42 9.43 448.04 11.27 446.96 11.27 448.04 11.86 447.46 12.07 448.04 13.64 446.96 13.64 448.04 14.91 446.96 14.91 447.51 17.72 445.86 17.09 447.39 19.24 446.17 18.66 447.33 20.46 446.32 19.72 448.04 20.93 447.22 20.93 448.04 22.83 446.42 22.52 448.04 24.35 446.96 24.35 448.04 24.94 447.46 25.15 448.04 26.72 446.96 26.72 448.04 27.99 446.96 27.99 448.04 29.06 448.04 32.76 445.86 32.13 447.39 34.29 446.17 33.71 447.33 35.5 446.32 34.77 448.04 35.97 447.22 35.97 448.04 37.87 446.42 37.57 448.04 39.4 446.96 39.4 448.04 39.99 447.46 40.2 448.04 41.77 446.96 41.77 448.04 43.04 446.96 43.04 447.52 45.84 445.86 45.21 447.39 47.37 446.17 46.8 447.33 48.58 446.32 47.86 448.04 49.07 447.22 49.07 448.04 50.95 446.42 50.65 448.04 52.49 446.96 52.49 448.04 53.28 448.04 54.86 446.96 54.86 448.04 56.12 446.96 56.12 448.04 56.65 448.04 60.36 445.86 59.73 447.39 61.88 446.17 61.31 447.33 63.1 446.32 62.36 448.04 63.57 447.22 63.57 448.04 65.47 446.42 65.16 448.04 67 446.96 67 448.04 67.58 447.46 67.8 448.04 69.37 446.96 69.37 448.04 70.63 446.96 70.63 447.51 73.44 445.86 72.81 447.39 74.97 446.17 74.4 447.33 76.18 446.32 75.45 448.04 76.66 447.22 76.66 448.04 78.55 446.42 78.24 448.04 80.09 446.96 80.09 448.04 80.88 448.04 82.46 446.96 82.46 448.04 83.72 446.96 83.72 448.04 84.79 448.04 88.48 445.86 87.85 447.39 90.01 446.17 89.44 447.33 91.22 446.32 90.5 448.04 91.71 447.22 91.71 448.04 93.59 446.42 93.29 448.04 95.13 446.96 95.13 448.04 95.71 447.46 95.92 448.04 97.5 446.96 97.5 448.04 98.77 446.96 98.77 447.51 101.56 445.86 100.94 447.39 103.1 446.17 102.52 447.33 104.31 446.32 103.58 448.04 104.79 447.22 104.79 448.04 106.68 446.42 106.37 448.04 108.21 446.96 108.21 448.04 108.79 447.46 109.01 448.04 110.58 446.96 110.58 448.04 111.85 446.96 111.85 447.96 115.42 445.86 114.8 447.39 116.95 446.17 116.37 447.33 118.17 446.32 117.43 448.04 118.64 447.22 118.64 448.04 120.54 446.42 120.22 448.04 122.06 446.96 122.06 448.04 122.87 448.04 124.44 446.96 124.44 448.04 125.7 446.96 125.7 447.51 128.51 445.86 127.88 447.39 130.04 446.17 129.46 447.33 131.25 446.32 130.51 448.04 131.72 448.04 133.62 446.42 133.31 448.04 135.15 446.96 135.15 448.04 135.73 447.46 135.95 448.04 137.52 446.96 137.52 448.04 138.78 446.96 138.78 448.04 139.85 448.04 143.55 445.86 142.92 447.39 145.08 446.17 144.5 447.33 146.29 446.32 145.56 448.04 146.77 447.22 146.77 448.04 148.66 446.42 148.36 448.04 150.19 446.96 150.19 448.04 150.78 447.46 150.99 448.04 152.56 446.96 152.56 448.04 153.83 446.96 153.83 447.51 156.63 445.86 156 447.39 158.16 446.17 157.59 447.33 159.37 446.32 158.65 448.04 159.86 447.22 159.86 448.04 161.74 446.42 161.44 448.04 163.28 446.96 163.28 448.04 163.86 447.46 164.07 448.04 165.65 446.96 165.65 448.04 166.92 446.96 166.92 448.04 167.44 448.04 171.14 445.86 170.52 447.39 172.68 446.17 172.1 447.33 173.89 446.32 173.15 448.04 174.36 447.22 174.36 448.04 176.26 446.42 175.95 448.04 177.79 446.96 177.79 448.04 178.38 447.46 178.59 448.04 180.16 446.96 180.16 448.04 181.42 446.96 181.42 447.52 184.23 445.86 183.6 447.39 185.76 446.17 185.19 447.33 186.97 446.32 186.25 448.04 187.45 447.22 187.45 448.04 189.34 446.42 189.04 448.04 190.88 446.96 190.88 448.04 191.46 447.46 191.67 448.04 193.25 446.96 193.25 448.04 194.51 446.96 194.51 448.04 195.58 448.04 199.28 445.86 198.65 447.39 200.8 446.17 200.23 447.33 202.01 446.32 201.29 448.04 202.5 447.22 202.5 448.04 204.39 446.42 204.08 448.04 205.92 446.96 205.92 448.04 206.5 447.46 206.71 448.04 208.29 446.96 208.29 448.04 209.56 446.96 209.56 447.51 212.36 445.86 211.74 447.39 213.88 446.17 213.31 447.33 215.1 446.32 214.37 448.04 215.58 447.22 215.58 448.04 217.48 446.42 217.16 448.04 219 446.96 219 448.04 219.58 447.46 219.8 448.04 221.38 446.96 221.38 448.04 222.64 446.96 222.64 448.04 226.34 445.86 225.72 447.39 227.87 446.17 227.29 447.33 229.08 446.32 228.35 448.04 229.56 447.22 229.56 448.04 231.46 446.42 231.14 448.04 232.98 446.96 232.98 448.04 233.56 447.46 233.78 448.04 235.35 446.96 235.35 448.04 236.62 446.96 236.62 447.51 239.43 445.86 238.8 447.39 240.95 446.17 240.37 447.33 242.16 446.32 241.43 448.04 242.64 447.22 242.64 448.04 244.54 446.42 244.23 448.04 246.06 446.96 246.06 448.04 246.65 447.46 246.86 448.04 248.43 446.96 248.43 448.04 249.7 446.96 249.7 448.04 250.76 448.04 254.47 445.86 253.84 447.39 256 446.17 255.42 447.33 257.21 446.32 256.47 448.04 257.68 447.22 257.68 448.04 259.58 446.42 259.27 448.04 261.11 446.96 261.11 448.04 261.7 447.46 261.91 448.04 263.48 446.96 263.48 448.04 264.74 446.96 264.74 447.52 263.86 448.04 264.74 448.04 264.74 447.52 267.55 445.86 266.92 447.39 269.08 446.17 268.51 447.33 270.29 446.32 269.57 448.04 270.77 447.22 270.77 448.04 272.66 446.42 272.36 448.04 274.2 446.96 274.2 448.04 274.78 447.46 274.99 448.04 276.57 446.96 276.57 448.04 277.83 446.96 277.83 448.04 278.36 448.04 282.06 445.86 281.44 447.39 283.59 446.17 283.01 447.33 284.81 446.32 284.07 448.04 285.28 447.22 285.28 448.04 287.18 446.42 286.87 448.04 288.7 446.96 288.7 448.04 289.29 447.46 289.51 448.04 291.08 446.96 291.08 448.04 292.34 448.04 292.34 447.51 295.15 445.86 294.52 447.39 296.68 446.17 296.11 447.33 297.89 446.32 297.16 448.04 298.37 447.22 298.37 448.04 300.26 446.42 299.95 448.04 301.8 446.96 301.8 448.04 302.37 447.46 302.59 448.04 304.17 446.96 304.17 448.04 305.43 446.96 305.43 448.04 306.5 448.04 310.19 445.86 309.56 447.39 311.72 446.17 311.15 447.33 312.93 446.32 312.21 448.04 313.42 447.22 313.42 448.04 315.3 446.42 315 448.04 316.84 446.96 316.84 448.04 317.42 447.46 317.63 448.04 319.21 446.96 319.21 448.04 320.48 446.96 320.48 447.51 323.27 445.86 322.65 447.39 324.8 446.17 324.23 447.33 326.02 446.32 325.29 448.04 326.5 447.22 326.5 448.04 328.39 446.42 328.08 448.04 329.92 446.96 329.92 448.04 330.5 447.46 330.72 448.04 332.29 446.96 332.29 448.04 333.56 446.96 333.56 447.96 333.43 448.04 333.56 448.04 333.56 447.96 337.13 445.86 336.51 447.39 338.65 446.17 338.08 447.33 339.88 446.32 339.14 448.04 340.35 447.22 340.35 448.04 342.25 446.42 341.93 448.04 343.77 446.96 343.77 448.04 344.35 447.46 344.57 448.04 346.15 446.96 346.15 448.04 347.41 446.96 347.41 447.51 350.21 445.86 349.59 447.39 351.74 446.17 351.17 447.33 352.96 446.32 352.22 448.04 353.43 447.22 353.43 448.04 355.33 446.42 355.02 448.04 356.86 446.96 356.86 448.04 357.44 447.46 357.66 448.04 359.23 446.96 359.23 448.04 360.49 446.96 360.49 448.04 361.56 448.04 365.26 445.86 364.63 447.39 366.79 446.17 366.21 447.33 368 446.32 367.27 448.04 368.48 447.22 368.48 448.04 370.37 446.42 370.07 448.04 371.9 446.96 371.9 448.04 372.7 448.04 374.27 446.96 374.27 448.04 375.54 446.96 375.54 447.51 374.65 448.04 375.54 448.04 375.54 447.51 378.34 445.86 377.71 447.39 379.87 446.17 379.3 447.33 381.08 446.32 380.36 448.04 381.57 447.22 381.57 448.04 383.45 446.42 383.15 448.04 384.99 446.96 384.99 448.04 385.57 447.46 385.78 448.04 387.36 446.96 387.36 448.04 388.63 446.96 388.63 448.04 389.15 448.04 392.85 445.86 392.23 447.39 394.39 446.17 393.81 447.33 395.6 446.32 394.86 448.04 396.07 447.22 396.07 448.04 397.97 446.42 397.66 448.04 399.5 446.96 399.5 448.04 400.08 447.46 400.3 448.04 401.87 446.96 401.87 448.04 403.13 446.96 403.13 447.51 405.94 445.86 405.31 447.39 407.47 446.17 406.9 447.33 408.68 446.32 407.95 448.04 409.16 447.22 409.16 448.04 411.05 446.42 410.74 448.04 412.58 446.96 412.58 448.04 413.17 447.46 413.38 448.04 414.96 446.96 414.96 448.04 416.22 446.96 416.22 448.04 417.29 448.04 420.99 445.86 420.36 447.39 422.51 446.17 421.94 447.33 423.72 446.32 422.99 448.04 424.21 447.22 424.21 448.04 426.1 446.42 425.79 448.04 427.63 446.96 427.63 448.04 428.21 447.46 428.42 448.04 430 446.96 430 448.04 431.27 446.96 431.27 447.51 434.07 445.86 433.45 447.39 435.59 446.17 435.02 447.33 436.8 446.32 436.08 448.04 437.29 448.04 439.19 446.42 438.87 448.04 440.71 446.96 440.71 448.04 441.29 447.46 441.51 448.04 443.08 446.96 443.08 448.04 444.35 446.96 444.35 448.04 444.71 448.04 448.42 445.86 447.79 447.39 449.94 446.17 449.36 447.33 451.15 446.32 450.42 448.04 451.63 447.22 451.63 448.04 453.53 446.42 453.22 448.04 455.05 446.96 455.05 448.04 455.64 447.46 455.85 448.04 457.42 446.96 457.42 448.04 457.8 448.04 458.69 447.51 461.5 445.86 460.87 447.39 463.02 446.17 462.45 447.33 464.23 446.32 463.51 448.04 464.72 447.22 464.72 448.04 466.61 446.42 466.3 448.04 468.14 446.96 468.14 448.04 468.93 448.04 470.51 446.96 470.51 448.04 471.78 446.96 471.78 448.04 472.84 448.04 476.54 445.86 475.91 447.39 478.07 446.17 477.5 447.33 479.28 446.32 478.55 448.04 479.76 447.22 479.76 448.04 481.65 446.42 481.34 448.04 483.19 446.96 483.19 448.04 483.98 448.04 485.56 446.96 485.56 448.04 486.82 446.96 486.82 447.66 491.05 445.86 490.19 447.39 493.17 446.17 492.38 447.33 494.85 446.32 493.84 448.04 495.51 447.22 495.51 448.04 498.14 446.42 497.71 448.04 500.25 446.96 500.25 448.04 501.06 447.46 501.36 448.04 503.54 446.96 503.54 448.04 505.3 446.96"/>
        <polygon class="cls-2" points="502.73 474.7 502.73 574.44 -1.64 574.44 -1.64 475.79 2.06 473.6 1.43 475.13 3.58 473.91 3.01 475.07 4.79 474.06 4.07 475.79 5.28 474.96 5.28 475.79 7.17 474.17 6.86 475.79 8.7 474.7 8.7 475.79 9.28 475.2 9.49 475.79 11.07 474.7 11.07 475.79 12.34 474.7 12.34 475.25 15.14 473.6 14.52 475.13 16.67 473.91 16.09 475.07 17.89 474.06 17.15 475.79 18.36 474.96 18.36 475.79 20.26 474.17 19.95 475.79 21.78 474.7 21.78 475.79 22.37 475.2 22.58 475.79 24.15 474.7 24.15 475.79 25.42 474.7 25.42 475.79 26.49 475.79 30.18 473.6 29.56 475.13 31.72 473.91 31.14 475.07 32.93 474.06 32.2 475.79 33.4 474.96 33.4 475.79 35.3 474.17 35 475.79 36.83 474.7 36.83 475.79 37.42 475.2 37.63 475.79 39.2 474.7 39.2 475.79 40.46 474.7 40.46 475.26 43.27 473.6 42.64 475.13 44.8 473.91 44.23 475.07 46.01 474.06 45.28 475.79 46.5 474.96 46.5 475.79 48.38 474.17 48.08 475.79 49.91 474.7 49.91 475.79 50.71 475.79 52.29 474.7 52.29 475.79 53.55 474.7 53.55 475.79 54.08 475.79 57.78 473.6 57.16 475.13 59.31 473.91 58.74 475.07 60.53 474.06 59.79 475.79 61 474.96 61 475.79 62.9 474.17 62.58 475.79 64.43 474.7 64.43 475.79 65.01 475.2 65.23 475.79 66.8 474.7 66.8 475.79 68.06 474.7 68.06 475.25 70.87 473.6 70.24 475.13 72.4 473.91 71.82 475.07 73.61 474.06 72.87 475.79 74.08 474.96 74.08 475.79 75.98 474.17 75.67 475.79 77.51 474.7 77.51 475.79 78.31 475.79 79.88 474.7 79.88 475.79 81.15 474.7 81.15 475.79 82.21 475.79 85.91 473.6 85.28 475.13 87.44 473.91 86.86 475.07 88.65 474.06 87.92 475.79 89.13 474.96 89.13 475.79 91.02 474.17 90.72 475.79 92.55 474.7 92.55 475.79 93.14 475.2 93.35 475.79 94.92 474.7 94.92 475.79 96.2 474.7 96.2 475.25 98.99 473.6 98.36 475.13 100.52 473.91 99.95 475.07 101.73 474.06 101.01 475.79 102.22 474.96 102.22 475.79 104.1 474.17 103.8 475.79 105.64 474.7 105.64 475.79 106.22 475.2 106.43 475.79 108.01 474.7 108.01 475.79 109.28 474.7 109.28 475.71 112.85 473.6 112.22 475.13 114.37 473.91 113.8 475.07 115.59 474.06 114.86 475.79 116.07 474.96 116.07 475.79 117.96 474.17 117.65 475.79 119.49 474.7 119.49 475.79 120.29 475.79 121.87 474.7 121.87 475.79 123.13 474.7 123.13 475.25 125.93 473.6 125.31 475.13 127.47 473.91 126.89 475.07 128.68 474.06 127.94 475.79 129.15 475.79 131.05 474.17 130.73 475.79 132.58 474.7 132.58 475.79 133.16 475.2 133.38 475.79 134.95 474.7 134.95 475.79 136.21 474.7 136.21 475.79 137.28 475.79 140.97 473.6 140.35 475.13 142.51 473.91 141.93 475.07 143.72 474.06 142.99 475.79 144.2 474.96 144.2 475.79 146.09 474.17 145.78 475.79 147.62 474.7 147.62 475.79 148.21 475.2 148.42 475.79 149.99 474.7 149.99 475.79 151.26 474.7 151.26 475.25 154.06 473.6 153.43 475.13 155.59 473.91 155.01 475.07 156.8 474.06 156.07 475.79 157.28 474.96 157.28 475.79 159.17 474.17 158.87 475.79 160.7 474.7 160.7 475.79 161.29 475.2 161.5 475.79 163.07 474.7 163.07 475.79 164.35 474.7 164.35 475.79 164.87 475.79 168.57 473.6 167.95 475.13 170.11 473.91 169.53 475.07 171.32 474.06 170.58 475.79 171.79 474.96 171.79 475.79 173.69 474.17 173.37 475.79 175.22 474.7 175.22 475.79 175.8 475.2 176.02 475.79 177.59 474.7 177.59 475.79 178.85 474.7 178.85 475.26 181.66 473.6 181.03 475.13 183.19 473.91 182.61 475.07 184.4 474.06 183.67 475.79 184.87 474.96 184.87 475.79 186.77 474.17 186.47 475.79 188.3 474.7 188.3 475.79 188.89 475.2 189.1 475.79 190.67 474.7 190.67 475.79 191.93 474.7 191.93 475.79 193 475.79 196.71 473.6 196.08 475.13 198.23 473.91 197.65 475.07 199.44 474.06 198.71 475.79 199.92 474.96 199.92 475.79 201.82 474.17 201.51 475.79 203.34 474.7 203.34 475.79 203.93 475.2 204.14 475.79 205.71 474.7 205.71 475.79 206.98 474.7 206.98 475.25 209.79 473.6 209.16 475.13 211.31 473.91 210.74 475.07 212.53 474.06 211.8 475.79 213.01 474.96 213.01 475.79 214.9 474.17 214.59 475.79 216.43 474.7 216.43 475.79 217.01 475.2 217.22 475.79 218.81 474.7 218.81 475.79 220.07 474.7 220.07 475.79 223.77 473.6 223.14 475.13 225.29 473.91 224.72 475.07 226.5 474.06 225.78 475.79 226.99 474.96 226.99 475.79 228.88 474.17 228.57 475.79 230.41 474.7 230.41 475.79 230.99 475.2 231.2 475.79 232.78 474.7 232.78 475.79 234.05 474.7 234.05 475.25 236.85 473.6 236.23 475.13 238.38 473.91 237.8 475.07 239.59 474.06 238.86 475.79 240.07 474.96 240.07 475.79 241.97 474.17 241.65 475.79 243.49 474.7 243.49 475.79 244.08 475.2 244.29 475.79 245.86 474.7 245.86 475.79 247.13 474.7 247.13 475.79 248.19 475.79 251.89 473.6 251.27 475.13 253.43 473.91 252.85 475.07 254.64 474.06 253.9 475.79 255.11 474.96 255.11 475.79 257.01 474.17 256.7 475.79 258.54 474.7 258.54 475.79 259.13 475.2 259.34 475.79 260.91 474.7 260.91 475.79 262.17 474.7 262.17 475.26 261.28 475.79 262.17 475.79 262.17 475.26 264.98 473.6 264.35 475.13 266.51 473.91 265.94 475.07 267.72 474.06 266.99 475.79 268.19 474.96 268.19 475.79 270.09 474.17 269.79 475.79 271.62 474.7 271.62 475.79 272.21 475.2 272.42 475.79 273.99 474.7 273.99 475.79 275.26 474.7 275.26 475.79 275.79 475.79 279.49 473.6 278.87 475.13 281.02 473.91 280.44 475.07 282.24 474.06 281.5 475.79 282.71 474.96 282.71 475.79 284.61 474.17 284.29 475.79 286.13 474.7 286.13 475.79 286.72 475.2 286.94 475.79 288.51 474.7 288.51 475.79 289.77 475.79 289.77 475.25 292.58 473.6 291.95 475.13 294.11 473.91 293.53 475.07 295.32 474.06 294.58 475.79 295.79 474.96 295.79 475.79 297.69 474.17 297.38 475.79 299.22 474.7 299.22 475.79 299.8 475.2 300.02 475.79 301.59 474.7 301.59 475.79 302.85 474.7 302.85 475.79 303.92 475.79 307.62 473.6 306.99 475.13 309.15 473.91 308.57 475.07 310.36 474.06 309.63 475.79 310.84 474.96 310.84 475.79 312.73 474.17 312.43 475.79 314.26 474.7 314.26 475.79 314.85 475.2 315.06 475.79 316.63 474.7 316.63 475.79 317.91 474.7 317.91 475.25 320.7 473.6 320.07 475.13 322.23 473.91 321.66 475.07 323.44 474.06 322.72 475.79 323.93 474.96 323.93 475.79 325.81 474.17 325.51 475.79 327.35 474.7 327.35 475.79 327.93 475.2 328.14 475.79 329.72 474.7 329.72 475.79 330.99 474.7 330.99 475.71 330.86 475.79 330.99 475.79 330.99 475.71 334.56 473.6 333.93 475.13 336.08 473.91 335.51 475.07 337.3 474.06 336.57 475.79 337.78 474.96 337.78 475.79 339.67 474.17 339.36 475.79 341.2 474.7 341.2 475.79 341.78 475.2 341.99 475.79 343.58 474.7 343.58 475.79 344.84 474.7 344.84 475.25 347.64 473.6 347.02 475.13 349.17 473.91 348.6 475.07 350.39 474.06 349.65 475.79 350.86 474.96 350.86 475.79 352.76 474.17 352.44 475.79 354.29 474.7 354.29 475.79 354.87 475.2 355.09 475.79 356.66 474.7 356.66 475.79 357.92 474.7 357.92 475.79 358.99 475.79 362.68 473.6 362.06 475.13 364.22 473.91 363.64 475.07 365.43 474.06 364.7 475.79 365.91 474.96 365.91 475.79 367.8 474.17 367.49 475.79 369.33 474.7 369.33 475.79 370.13 475.79 371.7 474.7 371.7 475.79 372.97 474.7 372.97 475.25 372.07 475.79 372.97 475.79 372.97 475.25 375.77 473.6 375.14 475.13 377.3 473.91 376.72 475.07 378.51 474.06 377.78 475.79 378.99 474.96 378.99 475.79 380.88 474.17 380.58 475.79 382.41 474.7 382.41 475.79 383 475.2 383.21 475.79 384.78 474.7 384.78 475.79 386.06 474.7 386.06 475.79 386.58 475.79 390.28 473.6 389.66 475.13 391.82 473.91 391.24 475.07 393.03 474.06 392.29 475.79 393.5 474.96 393.5 475.79 395.4 474.17 395.08 475.79 396.93 474.7 396.93 475.79 397.5 475.2 397.73 475.79 399.3 474.7 399.3 475.79 400.56 474.7 400.56 475.25 403.37 473.6 402.74 475.13 404.9 473.91 404.32 475.07 406.11 474.06 405.38 475.79 406.58 474.96 406.58 475.79 408.48 474.17 408.17 475.79 410.01 474.7 410.01 475.79 410.6 475.2 410.81 475.79 412.38 474.7 412.38 475.79 413.64 474.7 413.64 475.79 414.71 475.79 418.42 473.6 417.79 475.13 419.94 473.91 419.36 475.07 421.15 474.06 420.42 475.79 421.63 474.96 421.63 475.79 423.53 474.17 423.22 475.79 425.05 474.7 425.05 475.79 425.64 475.2 425.85 475.79 427.42 474.7 427.42 475.79 428.69 474.7 428.69 475.25 431.5 473.6 430.87 475.13 433.02 473.91 432.45 475.07 434.23 474.06 433.51 475.79 434.72 475.79 436.61 474.17 436.3 475.79 438.14 474.7 438.14 475.79 438.72 475.2 438.93 475.79 440.51 474.7 440.51 475.79 441.78 474.7 441.78 475.79 442.14 475.79 445.84 473.6 445.22 475.13 447.37 473.91 446.79 475.07 448.58 474.06 447.85 475.79 449.06 474.96 449.06 475.79 450.96 474.17 450.64 475.79 452.48 474.7 452.48 475.79 453.07 475.2 453.28 475.79 454.85 474.7 454.85 475.79 455.22 475.79 456.12 475.25 458.93 473.6 458.3 475.13 460.45 473.91 459.87 475.07 461.66 474.06 460.93 475.79 462.14 474.96 462.14 475.79 464.04 474.17 463.73 475.79 465.56 474.7 465.56 475.79 466.36 475.79 467.93 474.7 467.93 475.79 469.21 474.7 469.21 475.79 470.26 475.79 473.97 473.6 473.34 475.13 475.5 473.91 474.92 475.07 476.71 474.06 475.97 475.79 477.18 474.96 477.18 475.79 479.08 474.17 478.77 475.79 480.61 474.7 480.61 475.79 481.41 475.79 482.98 474.7 482.98 475.79 484.25 474.7 484.25 475.41 488.48 473.6 487.61 475.13 490.6 473.91 489.8 475.07 492.27 474.06 491.27 475.79 492.94 474.96 492.94 475.79 495.56 474.17 495.14 475.79 497.68 474.7 497.68 475.79 498.49 475.2 498.79 475.79 500.97 474.7 500.97 475.79 502.73 474.7"/>
      </g>
    </g>
    <g id="gdnfxY">
      <path class="cls-9" d="M224.36,317.71c-.44.28-.72.5-1.03.66-1.87.97-3.88,1.51-5.94,1.85-3.67.62-7.24.16-10.72-1.1-2.43-.88-4.49-2.31-6.02-4.43-.73-1.02-1.13-2.16-1.21-3.42-.02-.35-.05-.7-.08-1.05-.08-.02-.17-.03-.25-.05-.14.52-.34,1.04-.39,1.57-.07.72-.38,1.13-1.09,1.26-5.24.97-10.17.33-14.55-2.92-1.13-.84-2.01-1.92-2.59-3.21-.96-2.1-1.05-4.25.15-6.23.94-1.54,2.09-2.99,3.72-3.93,2.71-1.56,5.59-2.48,8.74-2.41.49.01.99.06,1.47-.02.46-.08.96-.23,1.32-.51.68-.53,1.49-.9,1.93-1.78.22-.44.88-.7,1.38-.97,2.47-1.34,5.12-2.13,7.93-2.35,1.3-.1,2.6-.22,3.91-.21,1.25,0,2.09-.78,2.77-1.54.56-.63,1.16-1.11,1.83-1.54,1.66-1.08,3.52-1.71,5.42-2.21.71-.19,1.23-.54,1.69-1.11,2.6-3.26,6.11-4.92,10.14-5.64,1.77-.32,3.54-.51,5.35-.5,3.2.01,6.28.63,9.14,2,1.51.72,2.88,1.82,4.17,2.92.7.59,1.29.77,2.09.45,2.37-.93,4.83-1.55,7.37-1.73,2.23-.16,4.49-.21,6.72-.09,1.74.1,3.47.51,5.19.85,2.65.53,5.05,1.67,7.11,3.4,1.1.92,1.88,2.14,2.02,3.66.1,1.08.16,1.11,1.22,1.33,2.19.45,4.25,1.2,5.98,2.65.5.41.99.45,1.59.36,1.36-.22,2.68-.08,3.95.51,1.03.48,1.89,1.16,2.42,2.17.33.63.8.87,1.47.9,1.85.1,3.66.46,5.36,1.19,2.02.86,3.95,1.91,5.46,3.58,1.95,2.17,2.32,5.34.82,7.45-.96,1.35-2.17,2.43-3.61,3.25-2.12,1.21-4.4,1.94-6.8,2.34-.12.02-.24.04-.36.05-1.16.1-1.29,0-1.56-1.07-2.91,2.64-7.68,3.76-10.01,2.32,0-.84.85-1.7.08-2.62-.48.72-.88,1.41-1.37,2.03-1.27,1.6-3.08,2.39-4.92,3.09-3.55,1.35-7.26,1.83-11.04,1.93-3.9.1-7.75-.21-11.52-1.26-2.18-.6-4.28-1.4-6.02-2.9-.52-.44-.96-.97-1.63-1.66,0,.47-.04.68,0,.88.24,1.05.22,1.12-.71,1.64-1.98,1.1-4.06,1.95-6.27,2.39-5.23,1.03-10.47,1.04-15.65-.39-2.91-.8-5.6-2.1-7.79-4.2-.81-.77-1.37-1.81-2.01-2.75-.22-.33-.34-.73-.52-1.14-.35.72-.41,1.14-.06,2.04.7,1.83,1.78,3.39,3.41,4.53.76.53,1.51,1.07,2.41,1.71Z"/>
    </g>
    <path class="cls-9" d="M527.14,244.86c.24-1,1.19-1.8.86-2.95-.11.02-.22.02-.24.05-1.16,2.57-3.33,3.96-5.84,4.89-1.92.71-3.91,1.09-5.97,1.24-2.85.2-5.62-.09-8.35-.83-1.71-.46-3.28-1.27-4.71-2.31-1.11-.81-1.87-1.91-2.5-3.34-.37.7-.12,1.19.08,1.62.57,1.17.23,1.61-.84,2.11-3.26,1.53-6.66,1.83-10.16,1.11-.22-.05-.42-.21-.74-.38,1.11-1.79,2.31-3.51,1.98-5.86-.21.17-.34.23-.36.31-.9,2.99-3.07,4.85-5.67,6.29-3.15,1.75-6.56,2.62-10.15,3-4.67.49-9.21.07-13.64-1.49-.31-.11-.61-.22-.91-.35-.07-.03-.11-.11-.21-.22.18-.47.66-.52,1.04-.69,2.14-.93,4.2-2.01,6.04-3.47,1.45-1.15,2.7-2.49,3.6-4.13.26-.48.44-1.02.46-1.65-.15.15-.32.29-.46.46-2.2,2.73-4.97,4.7-8.17,6.08-4.5,1.94-9.2,3.08-14.09,3.48-7.44.61-14.76.15-21.88-2.31-.85-.29-1.68-.63-2.51-.97-1.07-.45-1.07-.51-.96-1.65.05-.45,0-.9-.12-1.39-.84,1.81-2.16,3.11-3.79,4.08-2.06,1.22-4.29,2.02-6.65,2.38-3.84.57-7.65.5-11.4-.61-1.65-.49-3.23-1.14-4.67-2.12-.35-.24-.67-.54-1.11-.91,1.27-.99,2.72-1.52,3.61-3.02-.95.53-1.74.97-2.53,1.39-2.12,1.14-4.42,1.71-6.77,2.05-4.44.63-8.89.62-13.23-.64-1.6-.46-3.13-1.15-4.66-1.82-1.22-.53-2.16-1.48-2.98-2.5-1.57-1.98-1.15-4.38.93-6.17,2.3-1.98,5.05-2.97,7.94-3.62,1.11-.25,2.25-.41,3.38-.54.62-.07,1.06-.28,1.39-.83,2.31-3.82,5.98-5.36,10.17-6.04.32-.05.65-.07.97-.11.7-.08,1.11-.48,1.54-1.05,1.46-1.94,2.96-3.86,5.21-5.02,3.95-2.04,8.15-2.85,12.55-2.62,1.13.06,1.3.14,1.75-1.15.57-1.65,1.49-3.1,2.8-4.26,1.91-1.68,4.05-2.99,6.53-3.68.43-.12.85-.3,1.28-.41.64-.15.95-.54,1.09-1.17.71-3.36,2.96-5.38,6.02-6.5,3.77-1.38,7.52-1.3,11.13.64.11.06.23.08.34.12.79-.78,1.56-1.55,2.34-2.32.12-.11.24-.26.38-.3,1.58-.43,2.56-1.9,4.12-2.34,1.53-.44,3.04-.98,4.6-1.22,1.6-.24,3.26-.31,4.88-.2,3.45.24,6.66,1.37,9.44,3.43,2.34,1.74,4.47,3.76,5.77,6.48.51,1.06.62,1.07,1.84.8,3.51-.78,6.97-.68,10.38.53,1.78.63,3.46,1.43,4.71,2.92.33.39.85.61,1.18,1.01.35.42.55.96.83,1.44.14.24.28.47.45.69.29.38.7.71.87,1.13.32.81.86,1.13,1.69,1.12,1.39-.03,2.64.47,3.83,1.13.38.21.69.56,1.02.86.25.23.53.46.72.74.33.46.67.92.88,1.44.26.65.68.9,1.36,1.03,1.52.28,3.06.57,4.52,1.06,1.97.66,3.73,1.75,5.07,3.37,1.22,1.47,1.47,3.15.69,4.93-.11.26-.22.52-.34.8.44.51,1.04.48,1.58.58,2.58.49,5.06,1.28,7.4,2.5,1.14.59,2.15,1.34,2.84,2.45.47.76,1.18.89,2,.94,3.04.19,6,.72,8.73,2.16.81.43,1.54.92,1.94,1.79.05.11.1.25.19.3,1.01.57,1.14,1.52,1.09,2.54-.05,1.12-.74,1.92-1.52,2.56-.77.64-1.67,1.18-2.59,1.6-2.56,1.18-5.29,1.62-8.09,1.76-.28.01-.57,0-.85-.04-.11-.01-.21-.11-.36-.19Z"/>
    <path class="cls-9" d="M315.1,156.11c-.13,1.89.6,3.45,1.77,4.81.5.58,1.1,1.08,1.66,1.6.98.89.99,1.14.11,2.14-2.17,2.46-4.92,4.09-7.99,5.05-5.95,1.86-11.94,1.86-17.78-.46-3.32-1.32-6.23-3.28-8.08-6.47-.54-.94-.91-1.98-1.34-2.93-.32.94-.33,1.01.26,2.61.32.86.73,1.69,1.18,2.72-.62.17-1.12.41-1.62.43-5.9.23-11.76.1-17.43-1.92-3.2-1.13-6.19-2.58-8.71-4.88-1.52-1.39-2.71-3.03-3.37-5.01-.08-.24-.21-.47-.63-.63.1.67.07,1.4.34,1.98.62,1.33,1.32,2.65,2.14,3.87.76,1.13.82,1.37-.31,2.07-2.17,1.34-4.54,2.23-6.99,2.88-5.05,1.34-10.16,1.66-15.36,1.11-4.38-.47-8.51-1.61-12.41-3.66-1.49-.78-2.75-1.81-3.87-3.04-.83-.91-.78-1.12.21-1.98.74-.65,1.47-1.32,2.17-2.02.37-.38.65-.84.76-1.5-.28.18-.58.35-.85.55-3.7,2.84-7.88,4.31-12.55,4.3-2.52,0-5.05.19-7.56-.37-2.33-.52-4.55-1.32-6.59-2.55-2.15-1.29-3.98-2.91-4.7-5.76-.57.93-.37,1.55-.2,2.16.48,1.75,1.46,3.24,2.86,4.34,1.24.98,2.68,1.7,4.03,2.53.27.17.55.33.96.57-.28.35-.46.68-.73.9-2.38,1.94-5.15,3.15-8.01,4.17-4.26,1.52-8.68,2.37-13.17,2.94-4.93.62-9.9.5-14.82.25-7.51-.38-14.86-1.8-21.56-5.46-1.81-.99-3.46-2.33-4.98-3.73-.97-.89-1.57-2.19-2.32-3.28-.65,1.29-.31,2.41,1.91,5.98-.52.33-1,.77-1.57.99-3.29,1.24-6.54,2.61-9.91,3.58-5.13,1.48-10.37,2.49-15.73,2.68-4.5.15-9,.3-13.51.26-2.41-.02-4.81-.43-7.21-.68-.2-.02-.4-.15-.75-.3.38-1.87,1.73-3.56,1.21-5.71-.74,1.36-1.38,2.6-2.09,3.81-1.06,1.81-2.68,3.09-4.44,4.09-7.01,3.98-14.39,4.51-21.95,1.85-3.69-1.3-6.95-3.32-8.99-6.85-.51-.89-.89-1.85-1.4-2.92-.39.71-.2,1.34-.12,1.95.23,1.66.1,2.06-1.48,2.62-2.48.88-4.98,1.78-7.54,2.37-3.91.9-7.88,1.31-11.91,1.54-5.37.31-10.65-.13-15.88-1.11-5.88-1.09-11.55-2.87-16.38-6.57-2.23-1.71-4.32-3.62-5.02-6.55-.77-3.2-.25-6.1,2.09-8.56,1.64-1.72,3.34-3.36,5.45-4.49,1.59-.85,3.21-1.65,4.87-2.35,1-.42,1.54-.98,1.48-2.08-.14-2.45,1.25-4.2,2.92-5.66,2.34-2.03,5.15-3.12,8.28-3.31.33-.02.66-.02.99-.06,1.22-.17,1.48-.39,1.72-1.61,1.27-6.4,5.34-10.68,10.65-14.01.32-.2.7-.36,1.07-.41.75-.11,1.27-.5,1.85-.96.71-.57,1.59-.98,2.46-1.3,2.89-1.06,5.8-2.07,8.88-2.46.33-.04.65-.13.97-.2.75-.16,1.14-.6,1.14-1.38,0-.6.03-1.21,0-1.81-.11-2.09.45-4.04,1.26-5.92.25-.59.61-1.29,1.12-1.57,1.1-.59,1.72-1.54,2.22-2.55.63-1.29,1.59-2.23,2.7-3.05,3.87-2.85,8.18-4.7,12.89-5.63.16-.03.32-.09.48-.1,2.3-.09,3.73-1.13,4.68-3.36.89-2.08,2.69-3.53,4.99-4.17.3-.08.68-.26.8-.51.54-1.05,1.55-1.38,2.53-1.7,6.61-2.18,13.1-1.88,19.4,1.15.83.4,1.46,1.06,2.12,1.74.63.64,1.1,1.69,2.22,1.8.14.01.3.17.37.3.71,1.22,1.5,2.41,2.07,3.7.37.83.83,1.18,1.71,1.23,2.11.13,4.12.68,5.96,1.76,1.54.9,2.71,2.21,3.54,3.76.71,1.32.77,2.79.11,4.14-.62,1.27-.33,2.19.73,3,1.6,1.23,2.85,2.74,3.45,4.71.22.72.73.99,1.46,1.12,1.3.23,2.58.53,3.85.86,1.91.5,3.32,1.75,4.35,3.35.6.93,1.32,1.37,2.34,1.6,3.56.8,6.98,1.99,10.2,3.71.86.46,1.58,1.16,2.39,1.7.76.52,1.59.94,2.33,1.48.7.51,1.31,1.14,1.86,1.63,1.04-.52,1.97-1.11,2.97-1.49,4.97-1.87,10.12-3.02,15.38-3.56,5.47-.56,10.96-.59,16.46-.13,5.74.47,11.32,1.59,16.73,3.52,2.69.96,5.34,2.07,7.64,3.82.5.38.88.94,1.31,1.42.62.68,1.14,1.5,1.88,2.01,1.53,1.04,2.57,2.36,2.97,4.17.02.11.04.22.06.32.31,1.46.31,1.41,1.87,1.34,3.18-.16,6.37-.42,9.54-.33,4.93.15,9.72,1.21,14.13,3.51,1.48.77,2.8,1.89,4.12,2.94.49.39.81,1.01,1.17,1.55.81,1.21,1.48,1.51,2.92,1.18,3.53-.81,7.08-.93,10.64-.27,1.39.26,2.75.76,4.1,1.19,1.36.43,2.66.69,3.81-.51.25-.26.67-.36,1.02-.51,3.63-1.58,7.49-2.23,11.39-2.47,4.29-.27,8.56-.05,12.78.94,3.68.86,7.12,2.24,10.26,4.36.09.06.2.11.27.19,1.68,2.02,3.92,2.55,6.42,2.65,1.29.05,2.58.49,3.85.82.81.21,1.46.19,2.1-.46,1.87-1.88,4.12-2.84,6.81-2.6,1.85.16,3.59.61,4.91,2.02.67.71,1.4.87,2.37.75,3.16-.42,6.26-.11,9.2,1.21,1.35.6,2.77,1.12,3.46,2.61.06.14.21.24.34.34,2.41,1.89,3.18,4.8,2.02,7.6-1.16,2.79-3.38,4.49-6.08,5.47-4.32,1.57-8.7,1.65-13.05-.1-2.89-1.16-5.08-3.02-6.22-5.98-.06-.14-.16-.27-.25-.4Z"/>
  </g>
</svg>