<?xml version="1.0" encoding="UTF-8"?>
<svg id="Layer_1" data-name="Layer 1" xmlns="http://www.w3.org/2000/svg" version="1.1" viewBox="0 0 241.1 153.5">
  <defs>
    <style>
      .cls-1 {
        fill: none;
        stroke: #e30613;
        stroke-miterlimit: 10;
        stroke-width: .2px;
      }

      .cls-2 {
        fill: #1d1d1b;
      }

      .cls-2, .cls-3 {
        stroke-width: 0px;
      }

      .cls-3 {
        fill: #e30613;
      }
    </style>
  </defs>
  <polygon class="cls-2" points="43.1 53.7 37.3 46.6 37.3 46.6 37.3 53.7 33.6 53.7 33.6 38.3 37.3 38.3 37.3 44.5 37.4 44.5 42.9 38.3 47.5 38.3 40.9 45.4 47.9 53.7 43.1 53.7"/>
  <path class="cls-2" d="M130.8,44.9c-.3.8-.8,1.4-1.3,2-.6.5-1.3,1-2.1,1.3-.8.3-1.7.5-2.7.5s-1.9-.2-2.7-.5c-.8-.3-1.5-.7-2.1-1.3-.6-.5-1-1.2-1.3-2-.3-.8-.5-1.6-.5-2.5v-9.6h3.7v9.3c0,.4,0,.8.2,1.2.1.4.3.7.5,1,.2.3.5.5.9.7.4.2.8.3,1.3.3s1,0,1.3-.3c.4-.2.7-.4.9-.7.2-.3.4-.6.5-1,.1-.4.2-.8.2-1.2v-9.3h3.7v9.6c0,.9-.2,1.8-.5,2.5"/>
  <polygon class="cls-2" points="188.9 18.8 189 28.9 188.9 28.9 182.7 18.8 178.5 18.8 178.5 34.2 182.1 34.2 182 24.1 182.1 24.1 188.3 34.2 192.5 34.2 192.5 18.8 188.9 18.8"/>
  <path class="cls-2" d="M174.3,57c-.3-.4-.7-.7-1.3-1-.5-.2-1-.4-1.5-.4s-.5,0-.8,0c-.3,0-.5.1-.7.2-.2.1-.4.3-.5.5-.1.2-.2.4-.2.8s0,.5.2.7c.1.2.3.3.5.5.2.1.5.2.8.4.3.1.6.2,1,.3.5.2,1.1.4,1.6.6.6.2,1.1.5,1.5.8.5.3.8.8,1.2,1.3.3.5.5,1.2.5,1.9s-.2,1.7-.5,2.3c-.3.6-.8,1.2-1.3,1.6-.6.4-1.2.7-1.9.9-.7.2-1.4.3-2.2.3-1.1,0-2.2-.2-3.2-.6-1-.4-1.9-.9-2.6-1.6l2.4-2.5c.4.5.9.9,1.5,1.2.6.3,1.2.5,1.8.5s.5,0,.8,0c.3,0,.5-.2.7-.3.2-.1.4-.3.5-.5.1-.2.2-.5.2-.8s0-.5-.2-.7-.4-.4-.6-.6c-.3-.2-.6-.3-1-.5-.4-.1-.9-.3-1.4-.4-.5-.2-1-.3-1.4-.6-.5-.2-.9-.5-1.3-.8-.4-.3-.7-.8-.9-1.2-.2-.5-.3-1.1-.3-1.8s.2-1.6.5-2.2c.3-.6.8-1.1,1.4-1.5.6-.4,1.2-.7,1.9-.9.7-.2,1.4-.3,2.2-.3s1.8.2,2.7.5c.9.3,1.7.8,2.4,1.4l-2.4,2.5Z"/>
  <polygon class="cls-2" points="202.9 75.8 202.9 79 207.3 79 207.3 91.2 211 91.2 211 79 215.3 79 215.3 75.8 202.9 75.8"/>
  <rect class="cls-2" x="128.2" y="76.2" width="3.7" height="15.4"/>
  <polygon class="cls-2" points="120.8 106.1 120.8 116.2 120.8 116.2 114.6 106.1 110.3 106.1 110.3 121.5 114 121.5 113.9 111.4 113.9 111.4 120.1 121.5 124.4 121.5 124.4 106.1 120.8 106.1"/>
  <g>
    <path class="cls-1" d="M134.6,40.8c15.3,4.7,32.1,5.2,42.1-2"/>
    <polygon class="cls-3" points="177.4 41 179.1 36.8 174.7 37.5 177.4 41"/>
  </g>
  <g>
    <path class="cls-1" d="M187.6,35.3c.2,2.8.8,5.8-7,14.8"/>
    <polygon class="cls-3" points="179.4 48.1 178.6 52.5 182.8 51 179.4 48.1"/>
  </g>
  <g>
    <path class="cls-1" d="M178,69.1s8.3,8.1,22.2,13.7"/>
    <polygon class="cls-3" points="198.8 84.5 203.2 83.8 200.4 80.3 198.8 84.5"/>
  </g>
  <g>
    <path class="cls-1" d="M106.7,113.3s-33.8-19.5-67.8-13.4"/>
    <polygon class="cls-3" points="39.1 97.7 35.8 100.6 40 102.1 39.1 97.7"/>
  </g>
  <path class="cls-1" d="M29.9,88.4s-3-13.2,5.5-28.9"/>
  <polygon class="cls-3" points="36.9 61.2 36.8 56.8 33 59.1 36.9 61.2"/>
  <g>
    <path class="cls-1" d="M125.8,83.3s-8.7.7-9.4,16.3"/>
    <polygon class="cls-3" points="114.3 98.9 116.5 102.7 118.8 98.9 114.3 98.9"/>
  </g>
  <g>
    <path class="cls-1" d="M207.1,94.4c-7.9,20.8-50.4-7.2-68.1-11.1"/>
    <polygon class="cls-3" points="140 81.4 135.9 83.1 139.4 85.8 140 81.4"/>
  </g>
  <g>
    <path class="cls-1" d="M48.8,43.9s32.9-18.4,63-6.3"/>
    <polygon class="cls-3" points="110.3 39.5 114.7 38.9 112 35.4 110.3 39.5"/>
  </g>
  <path class="cls-3" d="M30.5,108c-1,.5-2.2.7-3.5.7s-2.3-.2-3.3-.6c-1-.4-1.9-.9-2.6-1.7-.7-.7-1.3-1.6-1.7-2.6-.4-1-.6-2.1-.6-3.3s.2-2.4.6-3.4c.4-1,1-1.9,1.8-2.6.8-.7,1.6-1.2,2.7-1.6,1-.4,2.1-.6,3.3-.6s2.2.2,3.2.6c1.1.4,1.9.9,2.6,1.7l-2.5,2.5c-.3-.5-.8-.8-1.4-1.1-.6-.2-1.1-.3-1.7-.3s-1.3.1-1.8.4c-.5.2-1,.6-1.4,1-.4.4-.7.9-.9,1.5-.2.6-.3,1.2-.3,1.9s.1,1.3.3,1.9c.2.6.5,1.1.9,1.5.4.4.8.7,1.4,1,.5.2,1.1.3,1.8.3s1.4-.1,1.9-.4c.6-.3,1-.7,1.3-1.1l2.6,2.4c-.7.8-1.5,1.4-2.5,1.9"/>
</svg>