<?xml version="1.0" encoding="UTF-8"?>
<svg id="Laag_1" data-name="Laag 1" xmlns="http://www.w3.org/2000/svg" viewBox="0 0 512 512">
  <defs>
    <style>
      .cls-1 {
        fill: #dc2531;
        stroke-width: 0px;
      }
    </style>
  </defs>
  <path class="cls-1" d="M324.38,103.12l59.62,24.88,24.88,59.62c1.38,2.62,4.12,4.38,7.12,4.38s5.75-1.75,7.12-4.38l24.88-59.62,59.62-24.88c2.62-1.38,4.38-4.12,4.38-7.12s-1.75-5.75-4.38-7.12l-59.62-24.88-24.88-59.62c-1.38-2.62-4.12-4.38-7.12-4.38s-5.75,1.75-7.12,4.38l-24.88,59.62-59.62,24.88c-2.62,1.38-4.38,4.12-4.38,7.12s1.75,5.75,4.38,7.12ZM507.62,408.88l-59.62-24.88-24.88-59.62c-1.38-2.62-4.12-4.38-7.12-4.38s-5.75,1.75-7.12,4.38l-24.88,59.62-59.62,24.88c-2.62,1.38-4.38,4.12-4.38,7.12s1.75,5.75,4.38,7.12l59.62,24.88,24.88,59.62c1.38,2.62,4.12,4.38,7.12,4.38s5.75-1.75,7.12-4.38l24.88-59.62,59.62-24.88c2.62-1.38,4.38-4.12,4.38-7.12s-1.75-5.75-4.38-7.12ZM384,255.62c0-6-3.38-11.62-8.88-14.38l-112.5-56.38-56.38-112.75c-5.38-10.88-23.12-10.88-28.5,0l-56.38,112.75L8.88,241.25c-5.5,2.75-8.88,8.38-8.88,14.38s3.38,11.62,8.88,14.38l112.5,56.38,56.38,112.75c2.62,5.38,8.25,8.88,14.25,8.88s11.62-3.5,14.25-8.88l56.38-112.75,112.5-56.38c5.5-2.75,8.88-8.25,8.88-14.38Z"/>
</svg>