<?xml version="1.0" encoding="UTF-8"?>
<svg id="Laag_1" data-name="Laag 1" xmlns="http://www.w3.org/2000/svg" viewBox="0 0 512 512">
  <defs>
    <style>
      .cls-1 {
        fill: #dc2531;
        stroke-width: 0px;
      }
    </style>
  </defs>
  <path class="cls-1" d="M324.38,103.12l59.62,24.88,24.88,59.62c1.38,2.62,4.12,4.38,7.12,4.38s5.75-1.75,7.12-4.38l24.88-59.62,59.62-24.88c2.62-1.38,4.38-4.12,4.38-7.12s-1.75-5.75-4.38-7.12l-59.62-24.88-24.88-59.62c-1.38-2.62-4.12-4.38-7.12-4.38s-5.75,1.75-7.12,4.38l-24.88,59.62-59.62,24.88c-2.62,1.38-4.38,4.12-4.38,7.12s1.75,5.75,4.38,7.12ZM507.62,408.88l-59.62-24.88-24.88-59.62c-1.38-2.62-4.12-4.38-7.12-4.38s-5.75,1.75-7.12,4.38l-24.88,59.62-59.62,24.88c-2.62,1.38-4.38,4.12-4.38,7.12s1.75,5.75,4.38,7.12l59.62,24.88,24.88,59.62c1.38,2.62,4.12,4.38,7.12,4.38s5.75-1.75,7.12-4.38l24.88-59.62,59.62-24.88c2.62-1.38,4.38-4.12,4.38-7.12s-1.75-5.75-4.38-7.12ZM384,256c0-9.12-5.12-17.38-13.25-21.5l-104.88-52.38-52.38-104.88c-8.12-16.25-34.88-16.25-43,0l-52.38,104.88L13.25,234.5c-8.12,4.12-13.25,12.38-13.25,21.5s5.12,17.38,13.25,21.5l104.88,52.38,52.38,104.88c4.12,8.12,12.38,13.25,21.5,13.25s17.38-5.12,21.5-13.25l52.38-104.88,104.88-52.38c8.12-4.12,13.25-12.38,13.25-21.5ZM237.25,290.5c-4.62,2.38-8.38,6.12-10.75,10.75l-34.5,69.12-34.5-69.12c-2.38-4.62-6.12-8.38-10.75-10.75l-69.12-34.5,69.12-34.5c4.62-2.38,8.38-6.12,10.75-10.75l34.5-69.12,34.5,69.12c2.38,4.62,6.12,8.38,10.75,10.75l69.12,34.5-69.12,34.5Z"/>
</svg>